<svg version="1.1" xmlns="http://www.w3.org/2000/svg" xmlns:xlink="http://www.w3.org/1999/xlink" width="324.86361" height="92.32042" viewBox="0,0,324.86361,92.32042"><g transform="translate(-96.41986,-174.49095)"><g data-paper-data="{&quot;isPaintingLayer&quot;:true}" stroke="none" stroke-linecap="butt" stroke-linejoin="miter" stroke-miterlimit="10" stroke-dasharray="" stroke-dashoffset="0" style="mix-blend-mode: normal"><g><path d="" fill="#ffffff" fill-rule="nonzero" stroke-width="1"/><path d="" fill="#ffffff" fill-rule="nonzero" stroke-width="1"/><path d="" fill="#ffffff" fill-rule="nonzero" stroke-width="1"/><path d="" fill="#ef463c" fill-rule="evenodd" stroke-width="1"/><path d="M298.259,178.55l2.54,11.4v8.175l-4.856,0.9l-4.184,-2.925l-0.897,5.625c0,0 -4.109,7.725 -4.259,7.95c-0.149,0.225 -7.097,4.575 -7.097,4.575l-1.719,2.25l3.138,-0.225l-1.195,5.325l-0.523,5.025l2.167,5.175l1.867,6.225l1.644,6.9l1.195,4.65l-0.672,3.6l-3.511,1.275l-2.84,-0.075l-3.063,2.625l-6.724,1.125l-4.341,-1.425l-3.038,-4.725l-2.632,-13.65l-4.782,1.575l-9.488,1.65l-4.184,0.075l0.821,2.025l0.972,8.175l-0.374,3.825l-3.81,2.55l-3.586,0.225l-6.052,2.7l-6.724,-0.75c0,0 -2.391,-2.325 -2.541,-2.55c-0.149,-0.225 -2.54,-7.65 -2.54,-7.65l-1.27,-7.95l0.897,-18.375l-2.914,-1.65l-5.006,-5.1l-3.81,-6.75l-0.747,-5.1l0.672,-2.325l2.54,-0.9l2.541,1.575l4.034,6.225l3.586,5.85l3.063,2.125l6.426,-2.05l7.994,3.3h9.563l10.492,-0.9l1.985,-2.55l-5.678,-3.375l-5.305,-6.975l-1.419,-4.725l-1.27,-3.225l-2.466,2.775c0,0 -3.063,2.55 -3.287,2.475c-0.224,-0.075 -2.391,-2.1 -2.391,-2.1l-2.839,-6.174l-0.373,-5.376v-9.3h19.798l4.208,-1.575l14.919,-1.275l10.609,1.95c0,0 13.897,-3.075 14.42,-3.15z" fill="#fcb322" fill-rule="evenodd" stroke-width="1"/><path d="M247.23,206.15c0,0 1.27,3.075 1.419,3.3c0.15,0.225 3.811,3.075 3.811,3.075l4.707,3.825l-7.173,2.775l-2.241,7.125l0.075,5.175l1.344,4.2l2.765,4.8l-7.92,1.35l-5.155,-0.975l-1.419,-1.8l-1.644,-6.225v-6.15l0.971,-5.625l0.075,-1.725l-8.667,-2.25c0,0 -1.27,-2.625 -1.195,-2.925c0.074,-0.3 0,-6 0,-6l1.345,-3.3l9.787,0.6h7.172z" fill="#71cbd2" fill-rule="evenodd" stroke-width="1"/><path d="M237.349,208.485c1.658,0.903 3.205,2.034 4.917,2.806c2.282,1.029 4.652,1.883 7.031,2.671c1.471,0.487 3.028,0.712 4.791,1.108c-0.248,-0.333 -0.283,-0.435 -0.346,-0.458c-3.691,-1.33 -6.114,-3.969 -7.746,-7.461c-0.137,-0.293 -0.618,-0.593 -0.945,-0.599c-1.623,-0.031 -3.319,-0.191 -4.925,0.059c-0.927,0.144 -2.201,0.605 -2.835,-0.435c-1.093,-1.791 1.378,-1.59 2.272,-1.6c1.647,-0.018 3.328,-0.213 4.974,-0.318c-0.501,-1.762 -0.948,-3.332 -1.459,-5.127c-0.887,0.961 -1.536,1.788 -2.312,2.47c-0.854,0.75 -1.586,1.763 -2.969,1.632c-1.619,-0.152 -3.006,-0.673 -3.792,-2.201c-0.456,-0.887 -0.834,-1.816 -1.209,-2.741c-1.073,-2.643 -2.001,-5.335 -2.002,-8.231c0,-2.852 0.015,-5.708 0.163,-8.554c0.127,-2.415 0.844,-3.061 3.318,-3.15c2.366,-0.085 4.741,-0.12 7.106,-0.035c3.271,0.116 6.536,0.377 9.804,0.546c0.503,0.026 1.116,0.058 1.502,-0.189c2.89,-1.848 6.08,-2.798 9.432,-3.178c4.056,-0.46 8.127,-0.35 12.08,0.704c1.727,0.461 3.758,1.738 5.508,1.441c2.135,-0.364 4.382,-0.672 6.474,-1.239c1.348,-0.366 2.742,-0.535 4.106,-0.882c1.931,-0.491 4.589,-1.042 6.574,-0.624c1.471,0.31 2.358,2.353 2.951,3.697c1.324,2.999 1.795,6.26 1.94,9.512c0.13464,3.01646 0.42336,5.84417 0.12875,8.83402c-0.42681,0.74202 -0.78757,1.52684 -1.07426,2.34646c-0.58764,0.52384 -1.36306,0.84706 -2.16849,0.86252c-1.957,0.039 -3.83,-0.405 -5.56,-1.642c-0.57777,5.16794 -2.59892,9.13451 -5.83967,12.14663c-1.04368,0.61316 -2.00087,1.35772 -2.84883,2.21095c-1.51012,0.9822 -3.19637,1.82948 -5.0455,2.55643c0.452,0.256 0.527,0.336 0.589,0.327c0.332,-0.046 0.667,-0.09 0.99,-0.177c0.56264,-0.15188 1.11967,-0.31472 1.67068,-0.4892c-1.43794,2.19922 -2.2739,4.82768 -2.2739,7.65139c0,0.38471 0.01551,0.76579 0.04596,1.14266c-0.08591,0.46176 -0.17193,0.92351 -0.25873,1.38514c-0.045,0.238 -0.162,0.516 -0.087,0.715c0.55,1.454 1.202,2.868 1.703,4.337c0.863,2.536 1.731,5.077 2.431,7.66c1.007,3.716 2.014,7.443 2.71,11.223c0.267,1.451 -0.163,3.102 -0.559,4.586c-0.412,1.545 -2.062,1.557 -3.273,1.938c-0.822,0.258 -1.794,0.015 -2.696,0.056c-0.386,0.018 -0.945,0.059 -1.121,0.307c-2.113,2.976 -5.138,3.686 -8.514,3.546c-1.031,-0.042 -2.084,-0.057 -3.082,-0.285c-2.429,-0.554 -4.322,-1.82 -5.558,-4.127c-1.756,-3.274 -2.084,-6.945 -3.116,-10.417c-0.416,-1.404 -0.604,-2.876 -0.945,-4.563c-0.792,0.188 -1.61,0.342 -2.403,0.579c-4.247,1.27 -8.55,2.134 -13.207,1.806c0,0.778 -0.189,1.564 0.033,2.208c0.985,2.854 1.332,5.801 1.409,8.785c0.018,0.719 -0.179,1.509 -0.494,2.159c-1.715,3.537 -4.495,4.569 -7.709,3.53c-0.239,-0.077 -0.653,0.09 -0.864,0.28c-2.478,2.229 -5.333,3.187 -8.669,2.884c-1.506,-0.136 -2.933,-0.297 -4.313,-1.026c-3.3,-1.744 -4.574,-4.705 -5.173,-8.151c-0.189,-1.087 -0.465,-2.163 -0.774,-3.223c-1.034,-3.545 -1.348,-7.2 -1.636,-10.853c-0.166,-2.118 -0.324,-4.264 -0.169,-6.375c0.184,-2.526 0.641,-5.038 1.121,-7.53c0.148,-0.769 0.058,-1.25 -0.575,-1.57c-3.617,-1.833 -5.773,-5.037 -7.897,-8.307c-1.868,-2.878 -2.884,-5.963 -3.357,-9.383c-0.239,-1.722 0.168,-2.875 1.082,-4.094c1.295,-1.728 2.767,-1.859 4.541,-0.637c1.895,1.305 2.901,3.209 3.819,5.187c1.133,2.441 2.494,4.794 4.158,6.911c0.819,1.04 1.71,2.101 2.73,2.95c1.149,0.96 1.626,0.355 2.853,-0.261c0.666,-0.335 2.426,-0.717 3,-1.313c0.659,-0.684 0.019,-1.603 -0.093,-2.387c-0.128,-0.893 -0.083,-1.924 0.006,-2.823c0.19019,-1.92545 0.89189,-3.75073 2.01413,-5.31641c1.18741,-0.54194 2.20876,-1.38458 2.96667,-2.43056c1.88839,2.61664 3.99685,5.03782 6.9492,6.64597zM265.904,177.622c-2.746,0.126 -5.506,0.763 -8.171,1.357c-2.437,0.544 -4.301,2.158 -6.128,3.723c-0.807,0.692 -1.475,1.674 -1.906,2.657c-1.377,3.136 -2.709,6.299 -3.852,9.527c-0.426,1.206 -0.576,2.671 -0.341,3.922c0.656,3.487 2.179,6.681 4.099,9.638c0.779,1.201 1.802,2.416 3.005,3.125c1.848,1.087 3.936,1.772 5.945,2.571c1.049,0.416 2.124,0.886 3.226,1.027c3.992,0.511 8.021,0.678 11.987,-0.082c4.349,-0.833 8.242,-2.813 11.692,-5.577c2.372,-1.9 3.661,-4.517 4.43,-7.445c1.05,-3.992 0.554,-7.269 -1.045,-10.964c-1.101,-2.544 -3.002,-5.43 -5.264,-7.051c-0.984,-0.705 -1.851,-1.589 -2.876,-2.225c-1.742,-1.081 -3.46,-2.446 -5.38,-2.937c-2.861,-0.732 -5.525,-1.288 -8.471,-1.288c-0.315,0 -0.633,0.008 -0.95,0.022zM257.757,237.069c-0.079,-0.812 -1.29,-5.264 0.533,-4.873c1.317,0.284 1.41,3.731 1.548,4.639c0.131,0.87 0.479,1.725 0.502,2.593c0.11,4.077 1.118,7.976 2.316,11.825c0.811,2.606 1.833,5.178 4.964,5.797c1.924,0.381 3.825,0.53 5.808,-0.055c3.521,-1.038 5.041,-3.237 4.401,-6.889c-0.449,-2.563 -0.864,-5.132 -1.403,-7.676c-0.337,-1.593 -0.729,-3.173 -1.106,-4.757c-0.222,-0.934 -0.756,-2.512 -0.591,-3.453c-0.247,0.521 -1.22,1.253 -1.783,0.57c-1.299,-1.576 1.994,-3.568 2.561,-4.642c0.814,-1.541 1.6,-3.144 2.062,-4.815c0.655,-2.363 1.008,-4.812 1.485,-7.203c-1.68,0.267 -3.116,0.546 -4.565,0.714c-1.475,0.171 -2.96,0.279 -4.445,0.328c-1.027,0.034 -2.067,-0.019 -3.089,-0.138c-1.569,-0.185 -3.138,-0.702 -4.69,-0.641c-2.468,0.096 -4.924,0.542 -7.383,0.861c-0.636,0.083 -1.27,0.216 -1.894,0.37c-0.91,0.223 -2.03,0.24 -2.651,0.801c-0.709,0.642 -1.01,2.236 -1.333,3.131c-0.407,1.126 -0.423,2.392 -0.506,3.586c-0.278,4 0.616,6.978 2.849,10.295c0.413,0.615 0.899,1.182 1.287,1.688c1.68188,-0.49196 3.34377,-0.97794 5.20962,-1.52489c-0.0066,-0.02466 -0.06131,-0.27626 -0.08662,-0.53111zM223.334,217.801c-0.282,0.167 -0.555,0.356 -0.859,0.579c-2.046,1.504 -4.332,4.399 -5.084,6.878c-1.032,3.405 -1.456,7.035 -1.251,10.642c0.153,2.699 0.694,5.378 0.789,8.076c0.149,4.196 1.613,8.053 2.809,11.97c0.577,1.893 1.932,3.434 3.934,3.938c3.807,0.96 7.281,0.456 9.7,-3.059c0.487,-0.708 0.926,-1.681 0.866,-2.493c-0.175,-2.364 -0.62,-4.71 -0.947,-7.063c-0.309,-2.227 -0.591,-4.458 -0.929,-6.68c-0.032,-0.209 -0.348,-0.454 -0.583,-0.538c-0.94,-0.338 -1.928,-0.552 -2.841,-0.948c-0.443,-0.192 -0.91,-0.623 -1.078,-1.059c-0.112,-0.291 0.22,-0.831 0.481,-1.156c0.965,-1.201 5.388,1.656 6.582,2.033c2.52,0.797 1.655,-0.748 1.036,-2.398c-0.796,-2.123 -1.125,-4.786 -1.029,-7.041c0.115,-2.718 -0.476,-5.535 0.69,-8.177c0.113,-0.258 0.154,-0.608 0.078,-0.871c-0.072,-0.249 -0.316,-0.596 -0.53,-0.633c-2.621,-0.446 -5.189,-0.803 -7.499,-2.3c-1.573,-1.02 -2.66,-0.687 -4.335,0.3zM232.634,188.465c0.053,4.052 1.44,7.687 3.254,11.187c0.584,1.129 1.489,1.357 2.509,0.639c4.449,-3.127 5.661,-7.88 7.386,-12.809c0.549,-1.568 1.006,-3.183 1.737,-4.679c0.505,-1.033 1.351,-2.232 -0.332,-2.478c-3.994,-0.584 -7.982,-0.313 -11.969,0.017c-1.214,0.1 -2.072,0.69 -2.173,2.016c-0.154,2.035 -0.276,4.071 -0.412,6.107zM283.564,180.292c0.832,0.753 1.51,1.496 2.31,2.067c3.119,2.229 4.624,5.516 5.627,9.003c0.679,2.364 1.317,4.527 3.632,5.851c1.886,1.078 4.081,0.55 4.402,-1.459c0.446,-2.782 0.363,-5.62 -0.288,-8.36c-0.406,-1.705 -0.389,-3.514 -0.939,-5.23c-0.44,-1.377 -1.047,-3.517 -2.346,-4.369c-1.847,-1.211 -5.332,0.207 -7.278,0.505c-1.801,0.278 -3.508,0.74 -5.12,1.992zM253.286,217.309c-2.876,-0.939 -5.706,-1.789 -8.483,-2.789c-3.641,-1.311 -7.153,-2.927 -10.299,-5.219c-1.42,-1.035 -2.737,-2.211 -4.082,-3.346c-0.307,-0.259 -0.534,-0.614 -0.797,-0.926c-0.32,0.373 -0.72,0.703 -0.945,1.128c-1.037,1.959 -1.034,4.071 -1.003,6.238c0.03,2.073 1.132,3.528 2.71,4.193c1.912,0.807 4.093,1.195 6.181,1.303c3.409,0.174 6.838,0.026 10.257,-0.087c2.161,-0.07 4.316,-0.325 6.461,-0.495zM219.093,218.647c-0.269,-0.236 -0.593,-0.447 -0.823,-0.735c-1.434,-1.794 -2.929,-3.546 -4.239,-5.428c-0.948,-1.363 -1.766,-2.85 -2.412,-4.38c-0.736,-1.744 -1.598,-3.371 -2.952,-4.687c-0.916,-0.891 -2.14,-0.681 -2.629,0.494c-0.329,0.789 -0.61,1.718 -0.522,2.543c0.457,4.341 2.486,8.059 5.15,11.362c1.466,1.817 3.454,3.212 5.241,4.828c1.124,-1.409 2.126,-2.668 3.186,-3.997zM278.853,229.416c-0.111,0 -0.222,0 -0.333,-0.001c-0.434,1.1 -1.014,2.17 -1.253,3.313c-0.164,0.785 0.122,1.674 0.248,2.51c0.346,2.305 0.679,4.612 1.085,6.906c0.379,2.145 0.928,4.262 1.243,6.415c0.199,1.359 0.076,2.763 0.171,4.14c0.018,0.253 0.358,0.626 0.615,0.697c1.685,0.462 3.511,-0.483 3.737,-2.203c0.206,-1.58 0.2,-3.289 -0.182,-4.824c-0.929,-3.727 -2.094,-7.397 -3.238,-11.066c-0.618,-1.987 -1.39,-3.926 -2.093,-5.887zM234.875,241.261c0.338,2.817 0.73,5.418 0.942,8.035c0.194,2.393 0.164,4.805 0.314,7.204c0.021,0.351 0.51,0.971 0.746,0.954c0.757,-0.055 1.638,-0.159 2.217,-0.588c1.654,-1.229 2.393,-3.033 2.262,-5.061c-0.282,-4.356 -0.091,-8.755 -5.119,-10.273c-0.403,-0.122 -0.829,-0.169 -1.362,-0.271zM236.832,229.375c3.368,-0.496 6.444,-0.95 9.802,-1.444c0,-0.935 -0.011,-1.923 0.004,-2.913c0.012,-0.777 -0.283,-1.017 -1.088,-0.889c-1.353,0.215 -2.726,0.308 -4.094,0.429c-1.51,0.134 -3.022,0.243 -4.624,0.37c0,1.435 0,2.875 0,4.447zM237.425,231.33c-0.162,0.111 -0.284,0.254 -0.348,0.439c-0.227,0.657 0.04,3.318 0.687,3.742c0.757,0.493 2.836,-0.347 3.599,-0.583c1.728,-0.535 3.509,-0.745 5.265,-1.188c0.876,-0.221 0.929,-0.08 0.838,-1.086c-0.072,-0.803 -0.533,-1.528 -0.545,-2.341c0.00098,0.067 -6.142,0.524 -6.592,0.567c-0.844,0.082 -2.227,-0.014 -2.904,0.45zM248.092,236.124c-0.094,-0.089 -0.188,-0.159 -0.282,-0.204c-0.836,-0.4 -2.829,0.469 -3.755,0.652c-1.233,0.245 -2.447,0.57 -3.667,0.873c-0.878,0.217 -1.806,0.137 -1.464,1.199c0.385,1.2 2.546,1.857 3.644,1.856c2.014,-0.002 4.108,0.235 6.094,-0.21c1.197,-0.268 1.319,-0.486 0.891,-1.598c-0.332,-0.861 -0.781,-1.923 -1.461,-2.568zM248.307,220.039c-2.589,-0.358 -5.467,-0.062 -8.087,-0.033c-0.65,0.008 -1.65,0.113 -2.158,0.593c-0.519,0.492 -0.587,1.347 -0.85,1.98c2.182,0.036 4.22,0.003 6.427,-0.184c0.96,-0.081 1.993,0.058 2.926,-0.236c0.404,-0.127 0.896,-0.32 1.199,-0.633c0.111,-0.114 0.835,-1.452 0.587,-1.482c-0.015,-0.001 -0.03,-0.003 -0.044,-0.005z" fill="#2a3d98" fill-rule="nonzero" stroke-width="1"/><path d="M288.66853,178.25245c1.946,-0.298 5.46655,-1.71424 7.31355,-0.50324c1.299,0.852 1.92474,3.00628 2.36474,4.38328c0.55,1.716 0.54417,3.55557 0.95017,5.26057c0.651,2.74 0.71854,5.61511 0.27254,8.39711c-0.321,2.009 -2.53376,2.54794 -4.41976,1.46994c-2.315,-1.324 -2.97222,-3.48417 -3.65122,-5.84817c-1.003,-3.487 -2.54289,-6.85719 -5.66189,-9.08619c-0.8,-0.571 -1.47798,-1.31403 -2.30998,-2.06703c1.612,-1.252 3.34085,-1.72827 5.14185,-2.00627z" data-paper-data="{&quot;noHover&quot;:false,&quot;origItem&quot;:[&quot;Path&quot;,{&quot;applyMatrix&quot;:true,&quot;segments&quot;:[[[283.564,180.292],[1.612,-1.252],[0.832,0.753]],[[285.874,182.359],[-0.8,-0.571],[3.119,2.229]],[[291.501,191.362],[-1.003,-3.487],[0.679,2.364]],[[295.133,197.213],[-2.315,-1.324],[1.886,1.078]],[[299.535,195.754],[-0.321,2.009],[0.446,-2.782]],[[299.247,187.394],[0.651,2.74],[-0.406,-1.705]],[[298.308,182.164],[0.55,1.716],[-0.44,-1.377]],[[295.962,177.795],[1.299,0.852],[-1.847,-1.211]],[[288.684,178.3],[1.946,-0.298],[-1.801,0.278]]],&quot;closed&quot;:true}]}" fill="#c26e00" fill-rule="nonzero" stroke-width="0.5"/><path d="M280.9467,235.253c1.144,3.669 2.33635,7.43038 3.26535,11.15738c0.382,1.535 0.3769,3.24965 0.1709,4.82965c-0.226,1.72 -2.06992,2.66795 -3.75492,2.20595c-0.257,-0.071 -0.59979,-0.44413 -0.61779,-0.69713c-0.095,-1.377 0.02466,-2.78136 -0.17434,-4.14036c-0.315,-2.153 -0.90479,-4.30508 -1.28379,-6.45008c-0.406,-2.294 -0.71478,-4.65946 -1.06078,-6.96446c-0.126,-0.836 -0.40735,-1.7272 -0.24335,-2.5122c0.239,-1.143 0.82849,-2.21584 1.26249,-3.31584c0.111,0.001 0.22332,0.00076 0.33432,0.00076c0.703,1.961 1.48392,3.89933 2.10192,5.88633z" data-paper-data="{&quot;noHover&quot;:false,&quot;origItem&quot;:[&quot;Path&quot;,{&quot;applyMatrix&quot;:true,&quot;segments&quot;:[[[278.853,229.416],[0.703,1.961],[-0.111,0]],[[278.52,229.415],[0.111,0.001],[-0.434,1.1]],[[277.267,232.728],[0.239,-1.143],[-0.164,0.785]],[[277.515,235.238],[-0.126,-0.836],[0.346,2.305]],[[278.6,242.144],[-0.406,-2.294],[0.379,2.145]],[[279.843,248.559],[-0.315,-2.153],[0.199,1.359]],[[280.014,252.699],[-0.095,-1.377],[0.018,0.253]],[[280.629,253.396],[-0.257,-0.071],[1.685,0.462]],[[284.366,251.193],[-0.226,1.72],[0.206,-1.58]],[[284.184,246.369],[0.382,1.535],[-0.929,-3.727]],[[280.946,235.303],[1.144,3.669],[-0.618,-1.987]]],&quot;closed&quot;:true}]}" fill="#c26e00" fill-rule="nonzero" stroke-width="0.5"/><path d="M257.8936,237.60144c-1.86585,0.54695 -3.62734,1.03769 -5.30923,1.52966c-0.388,-0.506 -0.87436,-1.0804 -1.28736,-1.6954c-2.233,-3.317 -3.11806,-6.32227 -2.84006,-10.32227c0.083,-1.194 0.10402,-2.46612 0.51102,-3.59212c0.323,-0.895 0.62941,-2.49386 1.33841,-3.13586c0.621,-0.561 1.74608,-0.58146 2.65608,-0.80446c0.624,-0.154 1.26191,-0.28909 1.89791,-0.37209c2.459,-0.319 4.93279,-0.76977 7.40079,-0.86577c1.552,-0.061 3.13326,0.45657 4.70226,0.64157c1.022,0.119 2.0696,0.17392 3.0966,0.13992c1.485,-0.049 2.97865,-0.15312 4.45365,-0.32412c1.449,-0.168 2.89106,-0.44295 4.57106,-0.70995c-0.477,2.391 -0.82356,4.846 -1.47856,7.209c-0.462,1.671 -1.24321,3.28026 -2.05721,4.82126c-0.567,1.074 -3.85439,3.07781 -2.55539,4.65381c0.563,0.683 1.53601,-0.04898 1.78301,-0.56998c-0.165,0.941 0.37141,2.53397 0.59341,3.46797c0.377,1.584 0.76592,3.18166 1.10292,4.77466c0.539,2.544 0.94467,5.12868 1.39367,7.69168c0.64,3.652 -0.89512,5.8627 -4.41612,6.9007c-1.983,0.585 -3.89664,0.44036 -5.82064,0.05936c-3.131,-0.619 -4.16688,-3.19019 -4.97788,-5.79619c-1.198,-3.849 -2.24686,-7.77585 -2.35686,-11.85285c-0.023,-0.868 -0.37476,-1.75646 -0.50576,-2.62646c-0.138,-0.908 -0.1473,-4.30785 -1.4643,-4.59185c-1.823,-0.391 -0.59736,4.03103 -0.51836,4.84303c0.02531,0.25485 0.08032,0.50207 0.08693,0.52674z" data-paper-data="{&quot;noHover&quot;:false,&quot;origItem&quot;:[&quot;Path&quot;,{&quot;applyMatrix&quot;:true,&quot;segments&quot;:[[[257.757,237.069],[0.02531,0.25485],[-0.079,-0.812]],[[258.29,232.196],[-1.823,-0.391],[1.317,0.284]],[[259.838,236.835],[-0.138,-0.908],[0.131,0.87]],[[260.34,239.428],[-0.023,-0.868],[0.11,4.077]],[[262.656,251.253],[-1.198,-3.849],[0.811,2.606]],[[267.62,257.05],[-3.131,-0.619],[1.924,0.381]],[[273.428,256.995],[-1.983,0.585],[3.521,-1.038]],[[277.829,250.106],[0.64,3.652],[-0.449,-2.563]],[[276.426,242.43],[0.539,2.544],[-0.337,-1.593]],[[275.32,237.673],[0.377,1.584],[-0.222,-0.934]],[[274.729,234.22],[-0.165,0.941],[-0.247,0.521]],[[272.946,234.79],[0.563,0.683],[-1.299,-1.576]],[[275.507,230.148],[-0.567,1.074],[0.814,-1.541]],[[277.569,225.333],[-0.462,1.671],[0.655,-2.363]],[[279.054,218.13],[-0.477,2.391],[-1.68,0.267]],[[274.489,218.844],[1.449,-0.168],[-1.475,0.171]],[[270.044,219.172],[1.485,-0.049],[-1.027,0.034]],[[266.955,219.034],[1.022,0.119],[-1.569,-0.185]],[[262.265,218.393],[1.552,-0.061],[-2.468,0.096]],[[254.882,219.254],[2.459,-0.319],[-0.636,0.083]],[[252.988,219.624],[0.624,-0.154],[-0.91,0.223]],[[250.337,220.425],[0.621,-0.561],[-0.709,0.642]],[[249.004,223.556],[0.323,-0.895],[-0.407,1.126]],[[248.498,227.142],[0.083,-1.194],[-0.278,4]],[[251.347,237.437],[-2.233,-3.317],[0.413,0.615]],[[252.634,239.125],[-0.388,-0.506],[1.68188,-0.49196]],[[257.84362,237.60011],[-1.86585,0.54695],[-0.0066,-0.02466]]],&quot;closed&quot;:true}]}" fill="#c26e00" fill-rule="nonzero" stroke-width="0.5"/><path d="M233.0121,182.32124c0.101,-1.326 0.96986,-1.92362 2.18386,-2.02362c3.987,-0.33 8.02606,-0.59803 12.02006,-0.01403c1.683,0.246 0.84328,1.45004 0.33828,2.48304c-0.731,1.496 -1.17817,3.12388 -1.72717,4.69188c-1.725,4.929 -2.99105,9.7545 -7.44005,12.8815c-1.02,0.718 -1.93693,0.48597 -2.52093,-0.64303c-1.814,-3.5 -3.22776,-7.19171 -3.28076,-11.24371c0.136,-2.036 0.27271,-4.09702 0.42671,-6.13202z" data-paper-data="{&quot;noHover&quot;:false,&quot;origItem&quot;:[&quot;Path&quot;,{&quot;applyMatrix&quot;:true,&quot;segments&quot;:[[[232.634,188.465],[0.136,-2.036],[0.053,4.052]],[[235.888,199.652],[-1.814,-3.5],[0.584,1.129]],[[238.397,200.291],[-1.02,0.718],[4.449,-3.127]],[[245.783,187.482],[-1.725,4.929],[0.549,-1.568]],[[247.52,182.803],[-0.731,1.496],[0.505,-1.033]],[[247.188,180.325],[1.683,0.246],[-3.994,-0.584]],[[235.219,180.342],[3.987,-0.33],[-1.214,0.1]],[[233.046,182.358],[0.101,-1.326],[-0.154,2.035]]],&quot;closed&quot;:true}]}" fill="#c26e00" fill-rule="nonzero" stroke-width="0.5"/><path d="M266.8512,177.55008c2.946,0 5.63208,0.55979 8.49308,1.29179c1.92,0.491 3.65143,1.86432 5.39343,2.94532c1.025,0.636 1.8983,1.52654 2.8823,2.23154c2.262,1.621 4.17234,4.52556 5.27334,7.06956c1.599,3.695 2.09517,6.99678 1.04517,10.98878c-0.769,2.928 -2.06625,5.56257 -4.43825,7.46257c-3.45,2.764 -7.36819,4.76204 -11.71719,5.59504c-3.966,0.76 -8.02578,0.5928 -12.01778,0.0818c-1.102,-0.141 -2.18485,-0.61437 -3.23385,-1.03037c-2.009,-0.799 -4.1092,-1.49315 -5.9572,-2.58015c-1.203,-0.709 -2.23223,-1.9318 -3.01123,-3.1328c-1.92,-2.957 -3.45077,-6.17325 -4.10677,-9.66025c-0.235,-1.251 -0.08509,-2.72477 0.34091,-3.93077c1.143,-3.228 2.4823,-6.41338 3.8593,-9.54938c0.431,-0.983 1.10349,-1.97117 1.91049,-2.66317c1.827,-1.565 3.70404,-3.18986 6.14104,-3.73386c2.665,-0.594 5.44474,-1.23743 8.19074,-1.36343c0.317,-0.014 0.63748,-0.0222 0.95248,-0.0222z" data-paper-data="{&quot;noHover&quot;:false,&quot;origItem&quot;:[&quot;Path&quot;,{&quot;applyMatrix&quot;:true,&quot;segments&quot;:[[[265.904,177.622],[0.317,-0.014],[-2.746,0.126]],[[257.733,178.979],[2.665,-0.594],[-2.437,0.544]],[[251.605,182.702],[1.827,-1.565],[-0.807,0.692]],[[249.699,185.359],[0.431,-0.983],[-1.377,3.136]],[[245.847,194.886],[1.143,-3.228],[-0.426,1.206]],[[245.506,198.808],[-0.235,-1.251],[0.656,3.487]],[[249.605,208.446],[-1.92,-2.957],[0.779,1.201]],[[252.61,211.571],[-1.203,-0.709],[1.848,1.087]],[[258.555,214.142],[-2.009,-0.799],[1.049,0.416]],[[261.781,215.169],[-1.102,-0.141],[3.992,0.511]],[[273.768,215.087],[-3.966,0.76],[4.349,-0.833]],[[285.46,209.51],[-3.45,2.764],[2.372,-1.9]],[[289.89,202.065],[-0.769,2.928],[1.05,-3.992]],[[288.845,191.101],[1.599,3.695],[-1.101,-2.544]],[[283.581,184.05],[2.262,1.621],[-0.984,-0.705]],[[280.705,181.825],[1.025,0.636],[-1.742,-1.081]],[[275.325,178.888],[1.92,0.491],[-2.861,-0.732]],[[266.854,177.6],[2.946,0],[-0.315,0]]],&quot;closed&quot;:true}]}" fill="#c26e00" fill-rule="nonzero" stroke-width="0.5"/><path d="M215.92415,222.69097c-1.787,-1.616 -3.80748,-3.01038 -5.27348,-4.82738c-2.664,-3.303 -4.71429,-7.10263 -5.17129,-11.44363c-0.088,-0.825 0.20074,-1.76078 0.52974,-2.54978c0.489,-1.175 1.72377,-1.39079 2.63977,-0.49979c1.354,1.316 2.22691,2.94013 2.96291,4.68413c0.646,1.53 1.5206,3.05875 2.4686,4.42175c1.31,1.882 2.79345,3.6744 4.22745,5.4684c0.23,0.288 0.55393,0.49908 0.82293,0.73508c-1.06,1.329 -2.08263,2.60222 -3.20663,4.01122z" data-paper-data="{&quot;noHover&quot;:false,&quot;origItem&quot;:[&quot;Path&quot;,{&quot;applyMatrix&quot;:true,&quot;segments&quot;:[[[219.093,218.647],[-1.06,1.329],[-0.269,-0.236]],[[218.27,217.912],[0.23,0.288],[-1.434,-1.794]],[[214.031,212.484],[1.31,1.882],[-0.948,-1.363]],[[211.619,208.104],[0.646,1.53],[-0.736,-1.744]],[[208.667,203.417],[1.354,1.316],[-0.916,-0.891]],[[206.038,203.911],[0.489,-1.175],[-0.329,0.789]],[[205.516,206.454],[-0.088,-0.825],[0.457,4.341]],[[210.666,217.816],[-2.664,-3.303],[1.466,1.817]],[[215.907,222.644],[-1.787,-1.616],[1.124,-1.409]]],&quot;closed&quot;:true}]}" fill="#c26e00" fill-rule="nonzero" stroke-width="0.5"/><path d="M236.22529,241.48339c5.028,1.518 4.88858,5.99579 5.17058,10.35179c0.131,2.028 -0.64145,3.85141 -2.29545,5.08041c-0.579,0.429 -1.47402,0.53283 -2.23102,0.58783c-0.236,0.017 -0.73083,-0.60426 -0.75183,-0.95526c-0.15,-2.399 -0.15655,-4.8605 -0.35055,-7.2535c-0.212,-2.617 -0.57263,-5.26307 -0.91063,-8.08007c0.533,0.102 0.9659,0.1468 1.3689,0.2688z" data-paper-data="{&quot;noHover&quot;:false,&quot;origItem&quot;:[&quot;Path&quot;,{&quot;applyMatrix&quot;:true,&quot;segments&quot;:[[[234.875,241.261],[0.533,0.102],[0.338,2.817]],[[235.817,249.296],[-0.212,-2.617],[0.194,2.393]],[[236.131,256.5],[-0.15,-2.399],[0.021,0.351]],[[236.877,257.454],[-0.236,0.017],[0.757,-0.055]],[[239.094,256.866],[-0.579,0.429],[1.654,-1.229]],[[241.356,251.805],[0.131,2.028],[-0.282,-4.356]],[[236.237,241.532],[5.028,1.518],[-0.403,-0.122]]],&quot;closed&quot;:true}]}" fill="#c26e00" fill-rule="nonzero" stroke-width="0.5"/><path d="M227.67211,217.4511c2.31,1.497 4.89612,1.85863 7.51712,2.30463c0.214,0.037 0.45964,0.38481 0.53164,0.63381c0.076,0.263 0.03574,0.61339 -0.07726,0.87139c-1.166,2.642 -0.56435,5.46666 -0.67935,8.18466c-0.096,2.255 0.24761,4.94387 1.04361,7.06687c0.619,1.65 1.38516,3.20365 -1.13484,2.40665c-1.194,-0.377 -5.60495,-3.19951 -6.56995,-1.99851c-0.261,0.325 -0.50814,0.81519 -0.39614,1.10619c0.168,0.436 0.63712,0.89384 1.08012,1.08584c0.913,0.396 1.90023,0.61333 2.84023,0.95133c0.235,0.084 0.55016,0.33179 0.58216,0.54079c0.338,2.222 0.60377,4.4763 0.91277,6.7033c0.327,2.353 0.76317,4.70466 0.93817,7.06866c0.06,0.812 -0.38343,1.78696 -0.87043,2.49496c-2.419,3.515 -5.91721,4.02195 -9.72421,3.06195c-2.002,-0.504 -3.36857,-2.04789 -3.94557,-3.94089c-1.196,-3.917 -2.68561,-7.79593 -2.83461,-11.99193c-0.095,-2.698 -0.64092,-5.41455 -0.79392,-8.11355c-0.205,-3.607 0.23946,-7.26574 1.27146,-10.67074c0.752,-2.479 3.05647,-5.3816 5.10247,-6.8856c0.304,-0.223 0.57924,-0.41238 0.86124,-0.57938c1.675,-0.987 2.7723,-1.32042 4.3453,-0.30042z" data-paper-data="{&quot;noHover&quot;:false,&quot;origItem&quot;:[&quot;Path&quot;,{&quot;applyMatrix&quot;:true,&quot;segments&quot;:[[[223.334,217.801],[1.675,-0.987],[-0.282,0.167]],[[222.475,218.38],[0.304,-0.223],[-2.046,1.504]],[[217.391,225.258],[0.752,-2.479],[-1.032,3.405]],[[216.14,235.9],[-0.205,-3.607],[0.153,2.699]],[[216.929,243.976],[-0.095,-2.698],[0.149,4.196]],[[219.738,255.946],[-1.196,-3.917],[0.577,1.893]],[[223.672,259.884],[-2.002,-0.504],[3.807,0.96]],[[233.372,256.825],[-2.419,3.515],[0.487,-0.708]],[[234.238,254.332],[0.06,0.812],[-0.175,-2.364]],[[233.291,247.269],[0.327,2.353],[-0.309,-2.227]],[[232.362,240.589],[0.338,2.222],[-0.032,-0.209]],[[231.779,240.051],[0.235,0.084],[-0.94,-0.338]],[[228.938,239.103],[0.913,0.396],[-0.443,-0.192]],[[227.86,238.044],[0.168,0.436],[-0.112,-0.291]],[[228.341,236.888],[-0.261,0.325],[0.965,-1.201]],[[234.923,238.921],[-1.194,-0.377],[2.52,0.797]],[[235.959,236.523],[0.619,1.65],[-0.796,-2.123]],[[234.93,229.482],[-0.096,2.255],[0.115,-2.718]],[[235.62,221.305],[-1.166,2.642],[0.113,-0.258]],[[235.698,220.434],[0.076,0.263],[-0.072,-0.249]],[[235.168,219.801],[0.214,0.037],[-2.621,-0.446]],[[227.669,217.501],[2.31,1.497],[-1.573,-1.02]]],&quot;closed&quot;:true}]}" fill="#c26e00" fill-rule="nonzero" stroke-width="0.5"/></g><g fill="#2a3d98" fill-rule="evenodd" stroke-width="1"><path d="M269.994,196.245c-1.46,2.37 -3.728,3.68 -6.481,3.822c-2.448,0.126 -4.34,-1.226 -5.743,-3.204c-0.535,-0.756 -2.2,-2.708 -1.673,-3.561c1.361,-2.202 3.482,2.473 3.982,3.03c1.45,1.615 3.534,1.588 5.265,0.423c1.442,-0.969 2.515,-2.199 2.856,-4.112c-0.453,-0.028 -0.887,-0.036 -1.318,-0.085c-0.82,-0.096 -1.408,-0.614 -1.281,-1.39c0.072,-0.437 0.712,-1.001 1.184,-1.108c1.312,-0.292 2.668,-0.439 4.013,-0.499c0.375,-0.017 1.024,0.409 1.1,0.736c0.114,0.488 0.007,1.255 -0.323,1.568c-0.655,0.621 -0.536,1.096 -0.148,1.736c1.938,3.191 6.619,2.991 8.469,-0.453c0.551,-1.024 0.764,-2.26 0.977,-3.427c0.15,-0.816 0.266,-1.347 1.294,-1.227c1.079,0.126 1.576,0.882 1.498,1.698c-0.455,4.73 -3.905,9.375 -9.738,7.762c-1.334,-0.368 -2.568,-1.104 -3.933,-1.709z"/><path d="M273.939,184.692c0.624,-0.564 1.854,-0.161 2.241,0.67c0.523,1.124 -0.192,2.657 -1.537,2.39c-0.979,-0.195 -1.182,-1.552 -1.049,-2.372c0.049,-0.309 0.174,-0.535 0.345,-0.688z"/><path d="M261.891,185.964c0.135,-0.756 0.42,-1.508 1.421,-1.536c0.759,-0.021 1.801,1.305 1.59,2.216c-0.1,0.432 -0.777,0.955 -1.251,1.024c-0.868,0.125 -1.777,-0.843 -1.76,-1.704z"/></g><g data-paper-data="{&quot;index&quot;:null}"><path d="" fill="#ffffff" fill-rule="nonzero" stroke-width="1"/><path d="" fill="#ffffff" fill-rule="nonzero" stroke-width="1"/><path d="" fill="#ffffff" fill-rule="nonzero" stroke-width="1"/><path d="" fill="#ef463c" fill-rule="evenodd" stroke-width="1"/><path d="M328.59624,179.83578c0.523,0.075 14.42,3.15 14.42,3.15l10.609,-1.95l14.919,1.275l4.208,1.575h19.798v9.3l-0.373,5.376l-2.839,6.174c0,0 -2.167,2.025 -2.391,2.1c-0.224,0.075 -3.287,-2.475 -3.287,-2.475l-2.466,-2.775l-1.27,3.225l-1.419,4.725l-5.305,6.975l-5.678,3.375l1.985,2.55l10.492,0.9h9.563l7.994,-3.3l6.426,2.05l3.063,-2.125l3.586,-5.85l4.034,-6.225l2.541,-1.575l2.54,0.9l0.672,2.325l-0.747,5.1l-3.81,6.75l-5.006,5.1l-2.914,1.65l0.897,18.375l-1.27,7.95c0,0 -2.391,7.425 -2.54,7.65c-0.15,0.225 -2.541,2.55 -2.541,2.55l-6.724,0.75l-6.052,-2.7l-3.586,-0.225l-3.81,-2.55l-0.374,-3.825l0.972,-8.175l0.821,-2.025l-4.184,-0.075l-9.488,-1.65l-4.782,-1.575l-2.632,13.65l-3.038,4.725l-4.341,1.425l-6.724,-1.125l-3.063,-2.625l-2.84,0.075l-3.511,-1.275l-0.672,-3.6l1.195,-4.65l1.644,-6.9l1.867,-6.225l2.167,-5.175l-0.523,-5.025l-1.195,-5.325l3.138,0.225l-1.719,-2.25c0,0 -6.948,-4.35 -7.097,-4.575c-0.15,-0.225 -4.259,-7.95 -4.259,-7.95l-0.897,-5.625l-4.184,2.925l-4.856,-0.9v-8.175l2.54,-11.4z" fill="#fcb322" fill-rule="evenodd" stroke-width="1"/><path d="M379.25224,209.68578h7.172l9.787,-0.6l1.345,3.3c0,0 -0.074,5.7 0,6c0.075,0.3 -1.195,2.925 -1.195,2.925l-8.667,2.25l0.075,1.725l0.971,5.625v6.15l-1.644,6.225l-1.419,1.8l-5.155,0.975l-7.92,-1.35l2.765,-4.8l1.344,-4.2l0.075,-5.175l-2.241,-7.125l-7.173,-2.775l4.707,-3.825c0,0 3.661,-2.85 3.811,-3.075c0.149,-0.225 1.419,-3.3 1.419,-3.3z" fill="#71cbd2" fill-rule="evenodd" stroke-width="1"/><path d="M394.13944,206.12481c0.75792,1.04598 1.77926,1.88861 2.96667,2.43055c1.12224,1.56568 1.82394,3.39096 2.01413,5.31642c0.089,0.899 0.134,1.93 0.006,2.823c-0.112,0.784 -0.752,1.703 -0.093,2.387c0.574,0.596 2.334,0.978 3,1.313c1.227,0.616 1.704,1.221 2.853,0.261c1.02,-0.849 1.911,-1.91 2.73,-2.95c1.664,-2.117 3.025,-4.47 4.158,-6.911c0.918,-1.978 1.924,-3.882 3.819,-5.187c1.774,-1.222 3.246,-1.091 4.541,0.637c0.914,1.219 1.321,2.372 1.082,4.094c-0.473,3.42 -1.489,6.505 -3.357,9.383c-2.124,3.27 -4.28,6.474 -7.897,8.307c-0.633,0.32 -0.723,0.801 -0.575,1.57c0.48,2.492 0.937,5.004 1.121,7.53c0.155,2.111 -0.003,4.257 -0.169,6.375c-0.288,3.653 -0.602,7.308 -1.636,10.853c-0.309,1.06 -0.585,2.136 -0.774,3.223c-0.599,3.446 -1.873,6.407 -5.173,8.151c-1.38,0.729 -2.807,0.89 -4.313,1.026c-3.336,0.303 -6.191,-0.655 -8.669,-2.884c-0.211,-0.19 -0.625,-0.357 -0.864,-0.28c-3.214,1.039 -5.994,0.007 -7.709,-3.53c-0.315,-0.65 -0.512,-1.44 -0.494,-2.159c0.077,-2.984 0.424,-5.931 1.409,-8.785c0.222,-0.644 0.033,-1.43 0.033,-2.208c-4.657,0.328 -8.96,-0.536 -13.207,-1.806c-0.793,-0.237 -1.611,-0.391 -2.403,-0.579c-0.341,1.687 -0.529,3.159 -0.945,4.563c-1.032,3.472 -1.36,7.143 -3.116,10.417c-1.236,2.307 -3.129,3.573 -5.558,4.127c-0.998,0.228 -2.051,0.243 -3.082,0.285c-3.376,0.14 -6.401,-0.57 -8.514,-3.546c-0.176,-0.248 -0.735,-0.289 -1.121,-0.307c-0.902,-0.041 -1.874,0.202 -2.696,-0.056c-1.211,-0.381 -2.861,-0.393 -3.273,-1.938c-0.396,-1.484 -0.826,-3.135 -0.559,-4.586c0.696,-3.78 1.703,-7.507 2.71,-11.223c0.7,-2.583 1.568,-5.124 2.431,-7.66c0.501,-1.469 1.153,-2.883 1.703,-4.337c0.075,-0.199 -0.042,-0.477 -0.087,-0.715c-0.08681,-0.46163 -0.17282,-0.92338 -0.25874,-1.38514c0.03044,-0.37687 0.04596,-0.75795 0.04596,-1.14266c0,-2.82371 -0.83596,-5.45217 -2.2739,-7.65139c0.551,0.17448 1.10804,0.33731 1.67067,0.4892c0.323,0.087 0.658,0.131 0.99,0.177c0.062,0.009 0.137,-0.071 0.589,-0.327c-1.84913,-0.72695 -3.53538,-1.57422 -5.0455,-2.55643c-0.84796,-0.85323 -1.80515,-1.59779 -2.84883,-2.21095c-3.24074,-3.01211 -5.2619,-6.97869 -5.83967,-12.14662c-1.73,1.237 -3.603,1.681 -5.56,1.642c-0.80543,-0.01546 -1.58085,-0.33868 -2.16849,-0.86252c-0.28669,-0.81961 -0.64745,-1.60444 -1.07426,-2.34646c-0.29462,-2.98985 -0.00589,-5.81756 0.12875,-8.83402c0.145,-3.252 0.616,-6.513 1.94,-9.512c0.593,-1.344 1.48,-3.387 2.951,-3.697c1.985,-0.418 4.643,0.133 6.574,0.624c1.364,0.347 2.758,0.516 4.106,0.882c2.092,0.567 4.339,0.875 6.474,1.239c1.75,0.297 3.781,-0.98 5.508,-1.441c3.953,-1.054 8.024,-1.164 12.08,-0.704c3.352,0.38 6.542,1.33 9.432,3.178c0.386,0.247 0.999,0.215 1.502,0.189c3.268,-0.169 6.533,-0.43 9.804,-0.546c2.365,-0.085 4.74,-0.05 7.106,0.035c2.474,0.089 3.191,0.735 3.318,3.15c0.148,2.846 0.163,5.702 0.163,8.554c-0.001,2.896 -0.929,5.588 -2.002,8.231c-0.375,0.925 -0.753,1.854 -1.209,2.741c-0.786,1.528 -2.173,2.049 -3.792,2.201c-1.383,0.131 -2.115,-0.882 -2.969,-1.632c-0.776,-0.682 -1.425,-1.509 -2.312,-2.47c-0.511,1.795 -0.958,3.365 -1.459,5.127c1.646,0.105 3.327,0.3 4.974,0.318c0.894,0.01 3.365,-0.191 2.272,1.6c-0.634,1.04 -1.908,0.579 -2.835,0.435c-1.606,-0.25 -3.302,-0.09 -4.925,-0.059c-0.327,0.006 -0.808,0.306 -0.945,0.599c-1.632,3.492 -4.055,6.131 -7.746,7.461c-0.063,0.023 -0.098,0.125 -0.346,0.458c1.763,-0.396 3.32,-0.621 4.791,-1.108c2.379,-0.788 4.749,-1.642 7.031,-2.671c1.712,-0.772 3.259,-1.903 4.917,-2.806c2.95234,-1.60815 5.06081,-4.02934 6.94919,-6.64597zM357.68524,181.88578c-2.946,0 -5.61,0.556 -8.471,1.288c-1.92,0.491 -3.638,1.856 -5.38,2.937c-1.025,0.636 -1.892,1.52 -2.876,2.225c-2.262,1.621 -4.163,4.507 -5.264,7.051c-1.599,3.695 -2.095,6.972 -1.045,10.964c0.769,2.928 2.058,5.545 4.43,7.445c3.45,2.764 7.343,4.744 11.692,5.577c3.966,0.76 7.995,0.593 11.987,0.082c1.102,-0.141 2.177,-0.611 3.226,-1.027c2.009,-0.799 4.097,-1.484 5.945,-2.571c1.203,-0.709 2.226,-1.924 3.005,-3.125c1.92,-2.957 3.443,-6.151 4.099,-9.638c0.235,-1.251 0.085,-2.716 -0.341,-3.922c-1.143,-3.228 -2.475,-6.391 -3.852,-9.527c-0.431,-0.983 -1.099,-1.965 -1.906,-2.657c-1.827,-1.565 -3.691,-3.179 -6.128,-3.723c-2.665,-0.594 -5.425,-1.231 -8.171,-1.357c-0.317,-0.014 -0.635,-0.022 -0.95,-0.022zM366.69562,241.88589c1.86585,0.54695 3.52774,1.03293 5.20962,1.52489c0.388,-0.506 0.874,-1.073 1.287,-1.688c2.233,-3.317 3.127,-6.295 2.849,-10.295c-0.083,-1.194 -0.099,-2.46 -0.506,-3.586c-0.323,-0.895 -0.624,-2.489 -1.333,-3.131c-0.621,-0.561 -1.741,-0.578 -2.651,-0.801c-0.624,-0.154 -1.258,-0.287 -1.894,-0.37c-2.459,-0.319 -4.915,-0.765 -7.383,-0.861c-1.552,-0.061 -3.121,0.456 -4.69,0.641c-1.022,0.119 -2.062,0.172 -3.089,0.138c-1.485,-0.049 -2.97,-0.157 -4.445,-0.328c-1.449,-0.168 -2.885,-0.447 -4.565,-0.714c0.477,2.391 0.83,4.84 1.485,7.203c0.462,1.671 1.248,3.274 2.062,4.815c0.567,1.074 3.86,3.066 2.561,4.642c-0.563,0.683 -1.536,-0.049 -1.783,-0.57c0.165,0.941 -0.369,2.519 -0.591,3.453c-0.377,1.584 -0.769,3.164 -1.106,4.757c-0.539,2.544 -0.954,5.113 -1.403,7.676c-0.64,3.652 0.88,5.851 4.401,6.889c1.983,0.585 3.884,0.436 5.808,0.055c3.131,-0.619 4.153,-3.191 4.964,-5.797c1.198,-3.849 2.206,-7.748 2.316,-11.825c0.023,-0.868 0.371,-1.723 0.502,-2.593c0.138,-0.908 0.231,-4.355 1.548,-4.639c1.823,-0.391 0.612,4.061 0.533,4.873c-0.02531,0.25485 -0.08002,0.50645 -0.08662,0.53111zM396.87024,221.78678c-2.31,1.497 -4.878,1.854 -7.499,2.3c-0.214,0.037 -0.458,0.384 -0.53,0.633c-0.076,0.263 -0.035,0.613 0.078,0.871c1.166,2.642 0.575,5.459 0.69,8.177c0.096,2.255 -0.233,4.918 -1.029,7.041c-0.619,1.65 -1.484,3.195 1.036,2.398c1.194,-0.377 5.617,-3.234 6.582,-2.033c0.261,0.325 0.593,0.865 0.481,1.156c-0.168,0.436 -0.635,0.867 -1.078,1.059c-0.913,0.396 -1.901,0.61 -2.841,0.948c-0.235,0.084 -0.551,0.329 -0.583,0.538c-0.338,2.222 -0.62,4.453 -0.929,6.68c-0.327,2.353 -0.772,4.699 -0.947,7.063c-0.06,0.812 0.379,1.785 0.866,2.493c2.419,3.515 5.893,4.019 9.7,3.059c2.002,-0.504 3.357,-2.045 3.934,-3.938c1.196,-3.917 2.66,-7.774 2.809,-11.97c0.095,-2.698 0.636,-5.377 0.789,-8.076c0.205,-3.607 -0.219,-7.237 -1.251,-10.642c-0.752,-2.479 -3.038,-5.374 -5.084,-6.878c-0.304,-0.223 -0.577,-0.412 -0.859,-0.579c-1.675,-0.987 -2.762,-1.32 -4.335,-0.3zM391.49324,186.64378c-0.101,-1.326 -0.959,-1.916 -2.173,-2.016c-3.987,-0.33 -7.975,-0.601 -11.969,-0.017c-1.683,0.246 -0.837,1.445 -0.332,2.478c0.731,1.496 1.188,3.111 1.737,4.679c1.725,4.929 2.937,9.682 7.386,12.809c1.02,0.718 1.925,0.49 2.509,-0.639c1.814,-3.5 3.201,-7.135 3.254,-11.187c-0.136,-2.036 -0.258,-4.072 -0.412,-6.107zM335.85524,182.58578c-1.946,-0.298 -5.431,-1.716 -7.278,-0.505c-1.299,0.852 -1.906,2.992 -2.346,4.369c-0.55,1.716 -0.533,3.525 -0.939,5.23c-0.651,2.74 -0.734,5.578 -0.288,8.36c0.321,2.009 2.516,2.537 4.402,1.459c2.315,-1.324 2.953,-3.487 3.632,-5.851c1.003,-3.487 2.508,-6.774 5.627,-9.003c0.8,-0.571 1.478,-1.314 2.31,-2.067c-1.612,-1.252 -3.319,-1.714 -5.12,-1.992zM377.71424,222.08978c3.419,0.113 6.848,0.261 10.257,0.087c2.088,-0.108 4.269,-0.496 6.181,-1.303c1.578,-0.665 2.68,-2.12 2.71,-4.193c0.031,-2.167 0.034,-4.279 -1.003,-6.238c-0.225,-0.425 -0.625,-0.755 -0.945,-1.128c-0.263,0.312 -0.49,0.667 -0.797,0.926c-1.345,1.135 -2.662,2.311 -4.082,3.346c-3.146,2.292 -6.658,3.908 -10.299,5.219c-2.777,1 -5.607,1.85 -8.483,2.789c2.145,0.17 4.3,0.425 6.461,0.495zM408.63224,226.92978c1.787,-1.616 3.775,-3.011 5.241,-4.828c2.664,-3.303 4.693,-7.021 5.15,-11.362c0.088,-0.825 -0.193,-1.754 -0.522,-2.543c-0.489,-1.175 -1.713,-1.385 -2.629,-0.494c-1.354,1.316 -2.216,2.943 -2.952,4.687c-0.646,1.53 -1.464,3.017 -2.412,4.38c-1.31,1.882 -2.805,3.634 -4.239,5.428c-0.23,0.288 -0.554,0.499 -0.823,0.735c1.06,1.329 2.062,2.588 3.186,3.997zM343.59324,239.58878c-1.144,3.669 -2.309,7.339 -3.238,11.066c-0.382,1.535 -0.388,3.244 -0.182,4.824c0.226,1.72 2.052,2.665 3.737,2.203c0.257,-0.071 0.597,-0.444 0.615,-0.697c0.095,-1.377 -0.028,-2.781 0.171,-4.14c0.315,-2.153 0.864,-4.27 1.243,-6.415c0.406,-2.294 0.739,-4.601 1.085,-6.906c0.126,-0.836 0.412,-1.725 0.248,-2.51c-0.239,-1.143 -0.819,-2.213 -1.253,-3.313c-0.111,0.001 -0.222,0.001 -0.333,0.001c-0.703,1.961 -1.475,3.9 -2.093,5.887zM388.30224,245.81778c-5.028,1.518 -4.837,5.917 -5.119,10.273c-0.131,2.028 0.608,3.832 2.262,5.061c0.579,0.429 1.46,0.533 2.217,0.588c0.236,0.017 0.725,-0.603 0.746,-0.954c0.15,-2.399 0.12,-4.811 0.314,-7.204c0.212,-2.617 0.604,-5.218 0.942,-8.035c-0.533,0.102 -0.959,0.149 -1.362,0.271zM387.70724,229.21378c-1.602,-0.127 -3.114,-0.236 -4.624,-0.37c-1.368,-0.121 -2.741,-0.214 -4.094,-0.429c-0.805,-0.128 -1.1,0.112 -1.088,0.889c0.015,0.99 0.004,1.978 0.004,2.913c3.358,0.494 6.434,0.948 9.802,1.444c0,-1.572 0,-3.012 0,-4.447zM384.21024,235.16578c-0.45,-0.043 -6.59298,-0.5 -6.592,-0.567c-0.012,0.813 -0.473,1.538 -0.545,2.341c-0.091,1.006 -0.038,0.865 0.838,1.086c1.756,0.443 3.537,0.653 5.265,1.188c0.763,0.236 2.842,1.076 3.599,0.583c0.647,-0.424 0.914,-3.085 0.687,-3.742c-0.064,-0.185 -0.186,-0.328 -0.348,-0.439c-0.677,-0.464 -2.06,-0.368 -2.904,-0.45zM374.98624,242.97778c-0.428,1.112 -0.306,1.33 0.891,1.598c1.986,0.445 4.08,0.208 6.094,0.21c1.098,0.001 3.259,-0.656 3.644,-1.856c0.342,-1.062 -0.586,-0.982 -1.464,-1.199c-1.22,-0.303 -2.434,-0.628 -3.667,-0.873c-0.926,-0.183 -2.919,-1.052 -3.755,-0.652c-0.094,0.045 -0.188,0.115 -0.282,0.204c-0.68,0.645 -1.129,1.707 -1.461,2.568zM376.18824,224.32978c-0.248,0.03 0.476,1.368 0.587,1.482c0.303,0.313 0.795,0.506 1.199,0.633c0.933,0.294 1.966,0.155 2.926,0.236c2.207,0.187 4.245,0.22 6.427,0.184c-0.263,-0.633 -0.331,-1.488 -0.85,-1.98c-0.508,-0.48 -1.508,-0.585 -2.158,-0.593c-2.62,-0.029 -5.498,-0.325 -8.087,0.033c-0.014,0.002 -0.029,0.004 -0.044,0.005z" fill="#2a3d98" fill-rule="nonzero" stroke-width="1"/><path d="M405.40846,222.96553c0.269,-0.236 0.59293,-0.44708 0.82293,-0.73508c1.434,-1.794 2.91745,-3.5864 4.22745,-5.4684c0.948,-1.363 1.8226,-2.89175 2.4686,-4.42175c0.736,-1.744 1.60891,-3.36813 2.96291,-4.68413c0.916,-0.891 2.15077,-0.67521 2.63977,0.49979c0.329,0.789 0.61774,1.72478 0.52974,2.54978c-0.457,4.341 -2.50729,8.14063 -5.17129,11.44363c-1.466,1.817 -3.48648,3.21138 -5.27348,4.82738c-1.124,-1.409 -2.14663,-2.68222 -3.20663,-4.01122z" data-paper-data="{&quot;noHover&quot;:false,&quot;origItem&quot;:[&quot;Path&quot;,{&quot;applyMatrix&quot;:true,&quot;segments&quot;:[[[408.63224,226.92978],[-1.124,-1.409],[1.787,-1.616]],[[413.87324,222.10178],[-1.466,1.817],[2.664,-3.303]],[[419.02324,210.73978],[-0.457,4.341],[0.088,-0.825]],[[418.50124,208.19678],[0.329,0.789],[-0.489,-1.175]],[[415.87224,207.70278],[0.916,-0.891],[-1.354,1.316]],[[412.92024,212.38978],[0.736,-1.744],[-0.646,1.53]],[[410.50824,216.76978],[0.948,-1.363],[-1.31,1.882]],[[406.26924,222.19778],[1.434,-1.794],[-0.23,0.288]],[[405.44624,222.93278],[0.269,-0.236],[1.06,1.329]]],&quot;closed&quot;:true}]}" fill="#ffe7bf" fill-rule="nonzero" stroke-width="0.5"/><path d="M389.68286,245.50038c-0.338,2.817 -0.69863,5.46307 -0.91063,8.08007c-0.194,2.393 -0.20055,4.8545 -0.35055,7.2535c-0.021,0.351 -0.51583,0.97226 -0.75183,0.95526c-0.757,-0.055 -1.65202,-0.15883 -2.23102,-0.58783c-1.654,-1.229 -2.42645,-3.05241 -2.29545,-5.08041c0.282,-4.356 0.14258,-8.83379 5.17058,-10.35179c0.403,-0.122 0.8359,-0.1668 1.3689,-0.2688z" data-paper-data="{&quot;noHover&quot;:false,&quot;origItem&quot;:[&quot;Path&quot;,{&quot;applyMatrix&quot;:true,&quot;segments&quot;:[[[388.30224,245.81778],[0.403,-0.122],[-5.028,1.518]],[[383.18324,256.09078],[0.282,-4.356],[-0.131,2.028]],[[385.44524,261.15178],[-1.654,-1.229],[0.579,0.429]],[[387.66224,261.73978],[-0.757,-0.055],[0.236,0.017]],[[388.40824,260.78578],[-0.021,0.351],[0.15,-2.399]],[[388.72224,253.58178],[-0.194,2.393],[0.212,-2.617]],[[389.66424,245.54678],[-0.338,2.817],[-0.533,0.102]]],&quot;closed&quot;:true}]}" fill="#ffe7bf" fill-rule="nonzero" stroke-width="0.5"/><path d="M401.21243,222.0373c0.282,0.167 0.55724,0.35638 0.86124,0.57938c2.046,1.504 4.35047,4.4066 5.10247,6.8856c1.032,3.405 1.47646,7.06374 1.27146,10.67074c-0.153,2.699 -0.69892,5.41555 -0.79392,8.11355c-0.149,4.196 -1.63861,8.07493 -2.83461,11.99193c-0.577,1.893 -1.94357,3.43689 -3.94557,3.94089c-3.807,0.96 -7.30521,0.45305 -9.72421,-3.06195c-0.487,-0.708 -0.93043,-1.68296 -0.87043,-2.49496c0.175,-2.364 0.61117,-4.71566 0.93817,-7.06866c0.309,-2.227 0.57477,-4.4813 0.91277,-6.7033c0.032,-0.209 0.34716,-0.45679 0.58216,-0.54079c0.94,-0.338 1.92723,-0.55533 2.84023,-0.95133c0.443,-0.192 0.91212,-0.64984 1.08012,-1.08584c0.112,-0.291 -0.13514,-0.78119 -0.39614,-1.10619c-0.965,-1.201 -5.37595,1.62151 -6.56995,1.99851c-2.52,0.797 -1.75384,-0.75665 -1.13484,-2.40665c0.796,-2.123 1.13961,-4.81187 1.04361,-7.06687c-0.115,-2.718 0.48665,-5.54266 -0.67935,-8.18466c-0.113,-0.258 -0.15326,-0.60839 -0.07726,-0.87139c0.072,-0.249 0.31764,-0.59681 0.53164,-0.63381c2.621,-0.446 5.20712,-0.80763 7.51712,-2.30463c1.573,-1.02 2.6703,-0.68658 4.3453,0.30042z" data-paper-data="{&quot;noHover&quot;:false,&quot;origItem&quot;:[&quot;Path&quot;,{&quot;applyMatrix&quot;:true,&quot;segments&quot;:[[[396.87024,221.78678],[1.573,-1.02],[-2.31,1.497]],[[389.37124,224.08678],[2.621,-0.446],[-0.214,0.037]],[[388.84124,224.71978],[0.072,-0.249],[-0.076,0.263]],[[388.91924,225.59078],[-0.113,-0.258],[1.166,2.642]],[[389.60924,233.76778],[-0.115,-2.718],[0.096,2.255]],[[388.58024,240.80878],[0.796,-2.123],[-0.619,1.65]],[[389.61624,243.20678],[-2.52,0.797],[1.194,-0.377]],[[396.19824,241.17378],[-0.965,-1.201],[0.261,0.325]],[[396.67924,242.32978],[0.112,-0.291],[-0.168,0.436]],[[395.60124,243.38878],[0.443,-0.192],[-0.913,0.396]],[[392.76024,244.33678],[0.94,-0.338],[-0.235,0.084]],[[392.17724,244.87478],[0.032,-0.209],[-0.338,2.222]],[[391.24824,251.55478],[0.309,-2.227],[-0.327,2.353]],[[390.30124,258.61778],[0.175,-2.364],[-0.06,0.812]],[[391.16724,261.11078],[-0.487,-0.708],[2.419,3.515]],[[400.86724,264.16978],[-3.807,0.96],[2.002,-0.504]],[[404.80124,260.23178],[-0.577,1.893],[1.196,-3.917]],[[407.61024,248.26178],[-0.149,4.196],[0.095,-2.698]],[[408.39924,240.18578],[-0.153,2.699],[0.205,-3.607]],[[407.14824,229.54378],[1.032,3.405],[-0.752,-2.479]],[[402.06424,222.66578],[2.046,1.504],[-0.304,-0.223]],[[401.20524,222.08678],[0.282,0.167],[-1.675,-0.987]]],&quot;closed&quot;:true}]}" fill="#ffe7bf" fill-rule="nonzero" stroke-width="0.5"/><path d="M391.95385,192.73905c-0.053,4.052 -1.46676,7.74371 -3.28076,11.24371c-0.584,1.129 -1.50093,1.36103 -2.52093,0.64303c-4.449,-3.127 -5.71505,-7.9525 -7.44005,-12.8815c-0.549,-1.568 -0.99617,-3.19588 -1.72717,-4.69188c-0.505,-1.033 -1.34472,-2.23704 0.33828,-2.48304c3.994,-0.584 8.03306,-0.31597 12.02006,0.01403c1.214,0.1 2.08286,0.69762 2.18386,2.02362c0.154,2.035 0.29071,4.09602 0.42671,6.13202z" data-paper-data="{&quot;noHover&quot;:false,&quot;origItem&quot;:[&quot;Path&quot;,{&quot;applyMatrix&quot;:true,&quot;segments&quot;:[[[391.49324,186.64378],[0.154,2.035],[-0.101,-1.326]],[[389.32024,184.62778],[1.214,0.1],[-3.987,-0.33]],[[377.35124,184.61078],[3.994,-0.584],[-1.683,0.246]],[[377.01924,187.08878],[-0.505,-1.033],[0.731,1.496]],[[378.75624,191.76778],[-0.549,-1.568],[1.725,4.929]],[[386.14224,204.57678],[-4.449,-3.127],[1.02,0.718]],[[388.65124,203.93778],[-0.584,1.129],[1.814,-3.5]],[[391.90524,192.75078],[-0.053,4.052],[-0.136,-2.036]]],&quot;closed&quot;:true}]}" fill="#ffe7bf" fill-rule="nonzero" stroke-width="0.5"/><path d="M345.69446,233.65246c0.111,0 0.22332,0.00024 0.33432,-0.00076c0.434,1.1 1.02349,2.17284 1.26249,3.31584c0.164,0.785 -0.11735,1.6762 -0.24335,2.5122c-0.346,2.305 -0.65478,4.67046 -1.06078,6.96446c-0.379,2.145 -0.96879,4.29708 -1.28379,6.45008c-0.199,1.359 -0.07934,2.76336 -0.17434,4.14036c-0.018,0.253 -0.36079,0.62613 -0.61779,0.69713c-1.685,0.462 -3.52892,-0.48595 -3.75492,-2.20595c-0.206,-1.58 -0.2111,-3.29465 0.1709,-4.82965c0.929,-3.727 2.12135,-7.48838 3.26535,-11.15738c0.618,-1.987 1.39892,-3.92533 2.10192,-5.88633z" data-paper-data="{&quot;noHover&quot;:false,&quot;origItem&quot;:[&quot;Path&quot;,{&quot;applyMatrix&quot;:true,&quot;segments&quot;:[[[343.59324,239.58878],[0.618,-1.987],[-1.144,3.669]],[[340.35524,250.65478],[0.929,-3.727],[-0.382,1.535]],[[340.17324,255.47878],[-0.206,-1.58],[0.226,1.72]],[[343.91024,257.68178],[-1.685,0.462],[0.257,-0.071]],[[344.52524,256.98478],[-0.018,0.253],[0.095,-1.377]],[[344.69624,252.84478],[-0.199,1.359],[0.315,-2.153]],[[345.93924,246.42978],[-0.379,2.145],[0.406,-2.294]],[[347.02424,239.52378],[-0.346,2.305],[0.126,-0.836]],[[347.27224,237.01378],[0.164,0.785],[-0.239,-1.143]],[[346.01924,233.70078],[0.434,1.1],[-0.111,0.001]],[[345.68624,233.70178],[0.111,0],[-0.703,1.961]]],&quot;closed&quot;:true}]}" fill="#ffe7bf" fill-rule="nonzero" stroke-width="0.5"/><path d="M366.73257,241.36049c0.079,-0.812 1.30464,-5.23403 -0.51836,-4.84303c-1.317,0.284 -1.3263,3.68385 -1.4643,4.59185c-0.131,0.87 -0.48276,1.75846 -0.50576,2.62646c-0.11,4.077 -1.15886,8.00385 -2.35686,11.85285c-0.811,2.606 -1.84688,5.17719 -4.97788,5.79619c-1.924,0.381 -3.83764,0.52564 -5.82064,-0.05936c-3.521,-1.038 -5.05612,-3.2487 -4.41612,-6.9007c0.449,-2.563 0.85467,-5.14768 1.39367,-7.69168c0.337,-1.593 0.72592,-3.19066 1.10292,-4.77466c0.222,-0.934 0.75841,-2.52697 0.59341,-3.46797c0.247,0.521 1.22001,1.25298 1.78301,0.56998c1.299,-1.576 -1.98839,-3.57981 -2.55539,-4.65381c-0.814,-1.541 -1.59521,-3.15026 -2.05721,-4.82126c-0.655,-2.363 -1.00156,-4.818 -1.47856,-7.209c1.68,0.267 3.12206,0.54195 4.57106,0.70995c1.475,0.171 2.96865,0.27512 4.45365,0.32412c1.027,0.034 2.0746,-0.02092 3.0966,-0.13992c1.569,-0.185 3.15026,-0.70257 4.70226,-0.64157c2.468,0.096 4.94179,0.54677 7.40079,0.86577c0.636,0.083 1.27391,0.21809 1.89791,0.37209c0.91,0.223 2.03508,0.24346 2.65608,0.80446c0.709,0.642 1.01541,2.24086 1.33841,3.13586c0.407,1.126 0.42802,2.39812 0.51102,3.59212c0.278,4 -0.60706,7.00527 -2.84006,10.32227c-0.413,0.615 -0.89936,1.1894 -1.28736,1.6954c-1.68189,-0.49196 -3.44338,-0.9827 -5.30923,-1.52966c0.00661,-0.02466 0.06162,-0.27188 0.08693,-0.52674z" data-paper-data="{&quot;noHover&quot;:false,&quot;origItem&quot;:[&quot;Path&quot;,{&quot;applyMatrix&quot;:true,&quot;segments&quot;:[[[366.69562,241.88589],[0.00661,-0.02466],[1.86585,0.54695]],[[371.90524,243.41078],[-1.68189,-0.49196],[0.388,-0.506]],[[373.19224,241.72278],[-0.413,0.615],[2.233,-3.317]],[[376.04124,231.42778],[0.278,4],[-0.083,-1.194]],[[375.53524,227.84178],[0.407,1.126],[-0.323,-0.895]],[[374.20224,224.71078],[0.709,0.642],[-0.621,-0.561]],[[371.55124,223.90978],[0.91,0.223],[-0.624,-0.154]],[[369.65724,223.53978],[0.636,0.083],[-2.459,-0.319]],[[362.27424,222.67878],[2.468,0.096],[-1.552,-0.061]],[[357.58424,223.31978],[1.569,-0.185],[-1.022,0.119]],[[354.49524,223.45778],[1.027,0.034],[-1.485,-0.049]],[[350.05024,223.12978],[1.475,0.171],[-1.449,-0.168]],[[345.48524,222.41578],[1.68,0.267],[0.477,2.391]],[[346.97024,229.61878],[-0.655,-2.363],[0.462,1.671]],[[349.03224,234.43378],[-0.814,-1.541],[0.567,1.074]],[[351.59324,239.07578],[1.299,-1.576],[-0.563,0.683]],[[349.81024,238.50578],[0.247,0.521],[0.165,0.941]],[[349.21924,241.95878],[0.222,-0.934],[-0.377,1.584]],[[348.11324,246.71578],[0.337,-1.593],[-0.539,2.544]],[[346.71024,254.39178],[0.449,-2.563],[-0.64,3.652]],[[351.11124,261.28078],[-3.521,-1.038],[1.983,0.585]],[[356.91924,261.33578],[-1.924,0.381],[3.131,-0.619]],[[361.88324,255.53878],[-0.811,2.606],[1.198,-3.849]],[[364.19924,243.71378],[-0.11,4.077],[0.023,-0.868]],[[364.70124,241.12078],[-0.131,0.87],[0.138,-0.908]],[[366.24924,236.48178],[-1.317,0.284],[1.823,-0.391]],[[366.78224,241.35478],[0.079,-0.812],[-0.02531,0.25485]]],&quot;closed&quot;:true}]}" fill="#ffe7bf" fill-rule="nonzero" stroke-width="0.5"/><path d="M358.64052,181.85806c2.746,0.126 5.52574,0.76943 8.19074,1.36343c2.437,0.544 4.31404,2.16886 6.14104,3.73386c0.807,0.692 1.47949,1.68017 1.91049,2.66317c1.377,3.136 2.7163,6.32138 3.8593,9.54938c0.426,1.206 0.57591,2.67977 0.34091,3.93077c-0.656,3.487 -2.18677,6.70325 -4.10677,9.66025c-0.779,1.201 -1.80823,2.4238 -3.01123,3.1328c-1.848,1.087 -3.9482,1.78115 -5.9572,2.58015c-1.049,0.416 -2.13185,0.88937 -3.23385,1.03037c-3.992,0.511 -8.05178,0.6782 -12.01778,-0.0818c-4.349,-0.833 -8.26719,-2.83104 -11.71719,-5.59504c-2.372,-1.9 -3.66925,-4.53457 -4.43825,-7.46257c-1.05,-3.992 -0.55383,-7.29378 1.04517,-10.98878c1.101,-2.544 3.01134,-5.44856 5.27334,-7.06956c0.984,-0.705 1.8573,-1.59554 2.8823,-2.23154c1.742,-1.081 3.47343,-2.45432 5.39343,-2.94532c2.861,-0.732 5.54708,-1.29179 8.49308,-1.29179c0.315,0 0.63548,0.0082 0.95248,0.0222z" data-paper-data="{&quot;noHover&quot;:false,&quot;origItem&quot;:[&quot;Path&quot;,{&quot;applyMatrix&quot;:true,&quot;segments&quot;:[[[357.68524,181.88578],[0.315,0],[-2.946,0]],[[349.21424,183.17378],[2.861,-0.732],[-1.92,0.491]],[[343.83424,186.11078],[1.742,-1.081],[-1.025,0.636]],[[340.95824,188.33578],[0.984,-0.705],[-2.262,1.621]],[[335.69424,195.38678],[1.101,-2.544],[-1.599,3.695]],[[334.64924,206.35078],[-1.05,-3.992],[0.769,2.928]],[[339.07924,213.79578],[-2.372,-1.9],[3.45,2.764]],[[350.77124,219.37278],[-4.349,-0.833],[3.966,0.76]],[[362.75824,219.45478],[-3.992,0.511],[1.102,-0.141]],[[365.98424,218.42778],[-1.049,0.416],[2.009,-0.799]],[[371.92924,215.85678],[-1.848,1.087],[1.203,-0.709]],[[374.93424,212.73178],[-0.779,1.201],[1.92,-2.957]],[[379.03324,203.09378],[-0.656,3.487],[0.235,-1.251]],[[378.69224,199.17178],[0.426,1.206],[-1.143,-3.228]],[[374.84024,189.64478],[1.377,3.136],[-0.431,-0.983]],[[372.93424,186.98778],[0.807,0.692],[-1.827,-1.565]],[[366.80624,183.26478],[2.437,0.544],[-2.665,-0.594]],[[358.63524,181.90778],[2.746,0.126],[-0.317,-0.014]]],&quot;closed&quot;:true}]}" fill="#ffe7bf" fill-rule="nonzero" stroke-width="0.5"/><path d="M341.01256,184.54451c-0.832,0.753 -1.50998,1.49603 -2.30998,2.06703c-3.119,2.229 -4.65889,5.59919 -5.66189,9.08619c-0.679,2.364 -1.33622,4.52417 -3.65122,5.84817c-1.886,1.078 -4.09876,0.53906 -4.41976,-1.46994c-0.446,-2.782 -0.37846,-5.65711 0.27254,-8.39711c0.406,-1.705 0.40017,-3.54457 0.95017,-5.26057c0.44,-1.377 1.06574,-3.53128 2.36474,-4.38328c1.847,-1.211 5.36755,0.20524 7.31355,0.50324c1.801,0.278 3.52985,0.75427 5.14185,2.00627z" data-paper-data="{&quot;noHover&quot;:false,&quot;origItem&quot;:[&quot;Path&quot;,{&quot;applyMatrix&quot;:true,&quot;segments&quot;:[[[335.85524,182.58578],[1.801,0.278],[-1.946,-0.298]],[[328.57724,182.08078],[1.847,-1.211],[-1.299,0.852]],[[326.23124,186.44978],[0.44,-1.377],[-0.55,1.716]],[[325.29224,191.67978],[0.406,-1.705],[-0.651,2.74]],[[325.00424,200.03978],[-0.446,-2.782],[0.321,2.009]],[[329.40624,201.49878],[-1.886,1.078],[2.315,-1.324]],[[333.03824,195.64778],[-0.679,2.364],[1.003,-3.487]],[[338.66524,186.64478],[-3.119,2.229],[0.8,-0.571]],[[340.97524,184.57778],[-0.832,0.753],[-1.612,-1.252]]],&quot;closed&quot;:true}]}" fill="#ffe7bf" fill-rule="nonzero" stroke-width="0.5"/></g><g data-paper-data="{&quot;index&quot;:null}" fill="#2a3d98" fill-rule="evenodd" stroke-width="1"><path d="M350.61224,202.23978c-5.833,1.613 -9.283,-3.032 -9.738,-7.762c-0.078,-0.816 0.419,-1.572 1.498,-1.698c1.028,-0.12 1.144,0.411 1.294,1.227c0.213,1.167 0.426,2.403 0.977,3.427c1.85,3.444 6.531,3.644 8.469,0.453c0.388,-0.64 0.507,-1.115 -0.148,-1.736c-0.33,-0.313 -0.437,-1.08 -0.323,-1.568c0.076,-0.327 0.725,-0.753 1.1,-0.736c1.345,0.06 2.701,0.207 4.013,0.499c0.472,0.107 1.112,0.671 1.184,1.108c0.127,0.776 -0.461,1.294 -1.281,1.39c-0.431,0.049 -0.865,0.057 -1.318,0.085c0.341,1.913 1.414,3.143 2.856,4.112c1.731,1.165 3.815,1.192 5.265,-0.423c0.5,-0.557 2.621,-5.232 3.982,-3.03c0.527,0.853 -1.138,2.805 -1.673,3.561c-1.403,1.978 -3.295,3.33 -5.743,3.204c-2.753,-0.142 -5.021,-1.452 -6.481,-3.822c-1.365,0.605 -2.599,1.341 -3.933,1.709z"/><path d="M350.94524,189.66578c0.133,0.82 -0.07,2.177 -1.049,2.372c-1.345,0.267 -2.06,-1.266 -1.537,-2.39c0.387,-0.831 1.617,-1.234 2.241,-0.67c0.171,0.153 0.296,0.379 0.345,0.688z"/><path d="M360.88824,191.95378c-0.474,-0.069 -1.151,-0.592 -1.251,-1.024c-0.211,-0.911 0.831,-2.237 1.59,-2.216c1.001,0.028 1.286,0.78 1.421,1.536c0.017,0.861 -0.892,1.829 -1.76,1.704z"/></g><g><path d="" fill="#ffffff" fill-rule="nonzero" stroke-width="1"/><path d="" fill="#ffffff" fill-rule="nonzero" stroke-width="1"/><path d="" fill="#ffffff" fill-rule="nonzero" stroke-width="1"/><path d="" fill="#ef463c" fill-rule="evenodd" stroke-width="1"/><path d="M190.98218,178.24156l2.72374,11.3575l0.132,8.17393l-4.84083,0.97829l-4.23068,-2.85706l-0.80606,5.63875c0,0 -3.98373,7.79034 -4.13008,8.01773c-0.14535,0.22738 -7.0222,4.689 -7.0222,4.689l-1.68245,2.27746l3.13396,-0.27564l-1.10886,5.3436l-0.44179,5.03279l2.25028,5.13934l1.96727,6.19404l1.7552,6.87255l1.26993,4.6301l-0.61378,3.61038l-3.48995,1.33153l-2.84084,-0.02913l-3.02022,2.67412l-6.70496,1.23342l-4.36344,-1.35472l-3.1139,-4.67533l-2.85206,-13.60572l-4.75595,1.65201l-9.46012,1.80299l-4.18224,0.14255l0.85359,2.01148l1.10387,8.15824l-0.31219,3.83054l-3.76833,2.61119l-3.5819,0.28287l-6.00761,2.79737l-6.73523,-0.64133c0,0 -2.42823,-2.28609 -2.58184,-2.50864c-0.15261,-0.22256 -2.66319,-7.60799 -2.66319,-7.60799l-1.3982,-7.92846l0.60018,-18.38709l-2.94026,-1.60273l-5.0877,-5.0185l-3.91849,-6.6876l-0.82925,-5.08727l0.63437,-2.33555l2.52514,-0.9409l2.5661,1.53377l4.13399,6.15905l3.67999,5.79133l3.09691,2.07527l6.39206,-2.15349l8.04624,3.17049l9.56175,-0.15441l10.4761,-1.0693l1.94357,-2.58172l-5.73176,-3.28288l-5.41693,-6.88843l-1.49511,-4.70147l-1.32191,-3.20407l-2.42087,2.81446c0,0 -3.02143,2.59913 -3.24661,2.52775c-0.22518,-0.07137 -2.4246,-2.06112 -2.4246,-2.06112l-2.93832,-6.12735l-0.45976,-5.36928l-0.15017,-9.29879l19.79542,-0.31968l4.18202,-1.64274l14.89647,-1.51573l10.6391,1.77844c0,0 13.84554,-3.29899 14.36726,-3.38243z" fill="#fcb322" fill-rule="evenodd" stroke-width="1"/><path d="M140.40549,206.66192c0,0 1.31949,3.05409 1.4721,3.27666c0.15361,0.22255 3.86015,3.01306 3.86015,3.01306l4.76815,3.7485l-7.12726,2.89046l-2.12566,7.16026l0.15855,5.17311l1.41164,4.17775l2.84214,4.75473l-7.89717,1.47771l-5.17007,-0.89164l-1.44788,-1.77685l-1.7443,-6.19764l-0.0993,-6.1492l0.88005,-5.63995l0.04714,-1.72599l-8.7022,-2.10976c0,0 -1.31222,-2.60415 -1.24207,-2.90532c0.06915,-0.30116 -0.09688,-5.99922 -0.09688,-5.99922l1.29154,-3.32129l9.79541,0.44189l7.17106,-0.11581z" fill="#71cbd2" fill-rule="evenodd" stroke-width="1"/><path d="M130.56348,209.15616c1.67236,0.87611 3.23742,1.98198 4.96167,2.72624c2.29832,0.99202 4.6818,1.80764 7.07321,2.55712c1.47867,0.46318 3.0391,0.66301 4.80827,1.0305c-0.25334,-0.32895 -0.28999,-0.43037 -0.35335,-0.45235c-3.71199,-1.27023 -6.17729,-3.86976 -7.86546,-7.33495c-0.14171,-0.29075 -0.62749,-0.58294 -0.95455,-0.58366c-1.62329,-0.00479 -3.32165,-0.13738 -4.92341,0.13852c-0.92455,0.15895 -2.19094,0.64046 -2.84165,-0.38917c-1.12178,-1.77312 1.35215,-1.61204 2.24587,-1.63648c1.64649,-0.04459 3.32413,-0.26671 4.96822,-0.39827c-0.52939,-1.75368 -1.00168,-3.31626 -1.54159,-5.10277c-0.87137,0.9752 -1.50693,1.81257 -2.27182,2.50701c-0.84178,0.76369 -1.55733,1.78838 -2.94226,1.67973c-1.62124,-0.12584 -3.01647,-0.62437 -3.82704,-2.13948c-0.47026,-0.87952 -0.86321,-1.8023 -1.2531,-2.72112c-1.11554,-2.62533 -2.08688,-5.30199 -2.13464,-8.1976c-0.04605,-2.85163 -0.07717,-5.7075 0.02486,-8.55552c0.08799,-2.41674 0.79446,-3.07423 3.2667,-3.20316c2.36432,-0.12319 4.73844,-0.19654 7.10451,-0.14974c3.27245,0.06317 6.54124,0.27141 9.81154,0.38762c0.50335,0.01787 1.11679,0.03997 1.49875,-0.21323c2.85978,-1.89442 6.03403,-2.89581 9.37946,-3.32988c4.04804,-0.52543 8.12029,-0.48118 12.08979,0.50885c1.73422,0.43305 3.78557,1.67709 5.53055,1.35188c2.12884,-0.39843 4.37058,-0.74267 6.45315,-1.34337c1.34191,-0.38772 2.733,-0.57921 4.09122,-0.94818c1.92282,-0.52212 4.57158,-1.11596 6.56307,-0.73007c1.47581,0.28621 2.39569,2.31462 3.01031,3.64887c1.37225,2.97723 1.89585,6.2302 2.09334,9.47943c0.18333,3.01389 0.51768,5.83658 0.27138,8.83079c-0.41478,0.74881 -0.76282,1.53936 -1.03624,2.3635c-0.57911,0.53326 -1.3492,0.86896 -2.15428,0.89743c-1.95612,0.07059 -3.83604,-0.3431 -5.58579,-1.55201c-0.49425,5.17659 -2.45109,9.17528 -5.64278,12.23933c-1.03364,0.62993 -1.97868,1.38985 -2.81276,2.25666c-1.49406,1.00646 -3.16641,1.88085 -5.00356,2.63756c0.45607,0.24867 0.53236,0.32745 0.5942,0.31745c0.33121,-0.05135 0.66546,-0.10076 0.98701,-0.19296c0.56011,-0.16095 1.11444,-0.33276 1.66256,-0.51611c-1.40224,2.22215 -2.19565,4.86377 -2.15006,7.68711c0.00621,0.38466 0.02788,0.76544 0.0644,1.14177c-0.07845,0.46308 -0.157,0.92617 -0.23634,1.38914c-0.04115,0.2387 -0.15365,0.51855 -0.07544,0.71631c0.57341,1.44493 1.24815,2.84822 1.77281,4.30894c0.90384,2.52173 1.81275,5.04839 2.55437,7.61975c1.06687,3.69926 2.13392,7.40951 2.89086,11.17778c0.29039,1.4465 -0.11289,3.10423 -0.48488,4.59443c-0.387,1.55145 -2.03659,1.59009 -3.24128,1.9906c-0.81773,0.27124 -1.79352,0.04397 -2.69474,0.09952c-0.38566,0.02423 -0.94392,0.07425 -1.1159,0.32506c-2.06467,3.00973 -5.07781,3.76848 -8.45563,3.68301c-1.03154,-0.02535 -2.08465,-0.02334 -3.0862,-0.2352c-2.43763,-0.51471 -4.35082,-1.74998 -5.62391,-4.03672c-1.80864,-3.24522 -2.19587,-6.91044 -3.2838,-10.36533c-0.43862,-1.3971 -0.65036,-2.86587 -1.01856,-4.54715c-0.78886,0.20076 -1.60427,0.36795 -2.39334,0.61773c-4.22594,1.33841 -8.51443,2.27178 -13.17612,2.01902c0.01256,0.7779 -0.16372,1.56685 0.06865,2.20718c1.03095,2.83772 1.42549,5.77874 1.55067,8.7611c0.02961,0.71862 -0.15461,1.51169 -0.45907,2.1667c-1.65766,3.56423 -4.42064,4.64098 -7.651,3.65402c-0.24021,-0.07313 -0.65146,0.10053 -0.85937,0.29391c-2.44169,2.26872 -5.28084,3.2727 -8.6213,3.0236c-1.508,-0.11167 -2.93741,-0.2496 -4.329,-0.95622c-3.32773,-1.69049 -4.64937,-4.63053 -5.30394,-8.06641c-0.20653,-1.08381 -0.49987,-2.15521 -0.82594,-3.21008c-1.09111,-3.52784 -1.46408,-7.1773 -1.81103,-10.82517c-0.20018,-2.11504 -0.39281,-4.25821 -0.27191,-6.37144c0.14319,-2.52864 0.55957,-5.04769 0.99927,-7.54712c0.13556,-0.77129 0.03781,-1.25077 -0.60028,-1.56051c-3.64613,-1.77436 -5.85358,-4.94313 -8.0301,-8.17841c-1.91423,-2.84746 -2.97991,-5.91565 -3.50807,-9.32757c-0.26677,-1.71792 0.12156,-2.87734 1.01575,-4.11094c1.26693,-1.74868 2.73662,-1.90344 4.53012,-0.71024c1.91582,1.27423 2.95244,3.16174 3.90226,5.12466c1.17227,2.42239 2.57108,4.7531 4.26905,6.84296c0.83569,1.02664 1.7437,2.07311 2.77728,2.90553c1.16435,0.94132 1.63152,0.3287 2.84841,-0.30703c0.6605,-0.34571 2.41411,-0.75608 2.97841,-1.36127c0.64787,-0.69455 -0.00689,-1.6031 -0.13153,-2.38519c-0.1424,-0.89082 -0.11406,-1.92241 -0.03958,-2.82273c0.15908,-1.92827 0.83122,-3.76465 1.92802,-5.34824c1.17851,-0.56104 2.18611,-1.42006 2.92704,-2.47814c1.93039,2.5858 4.07767,4.97263 7.0556,6.5329zM158.61641,177.83611c-2.74361,0.17032 -5.49296,0.85181 -8.14802,1.48876c-2.4279,0.58328 -4.26559,2.22717 -6.06709,3.82146c-0.79572,0.70494 -1.44778,1.6976 -1.86285,2.68743c-1.32618,3.15783 -2.60694,6.34192 -3.69767,9.58796c-0.40647,1.21272 -0.5328,2.67995 -0.27763,3.92699c0.71222,3.47595 2.28659,6.64494 4.25409,9.57056c0.79829,1.18827 1.84078,2.38659 3.05507,3.07607c1.86531,1.05702 3.9641,1.70821 5.98574,2.47467c1.05558,0.39901 2.13803,0.85159 3.24216,0.97478c3.99973,0.44648 8.0309,0.5484 11.98411,-0.27554c4.33498,-0.90311 8.1955,-2.94572 11.60042,-5.76506c2.34101,-1.93805 3.58759,-4.57552 4.30921,-7.51556c0.9854,-4.00843 0.43656,-7.277 -1.2219,-10.9457c-1.14193,-2.52589 -3.08929,-5.38082 -5.37717,-6.96508c-0.99526,-0.68902 -1.87642,-1.5589 -2.91155,-2.17827c-1.75923,-1.05273 -3.49904,-2.38981 -5.42672,-2.84975c-2.87245,-0.68571 -5.54508,-1.19862 -8.49069,-1.15105c-0.31496,0.00509 -0.63279,0.01822 -0.94952,0.03734zM151.43036,237.40691c-0.0921,-0.81062 -1.37483,-5.24248 0.45425,-4.88097c1.32141,0.2627 1.47006,3.70775 1.6227,4.6134c0.14503,0.86777 0.50679,1.71704 0.5438,2.58456c0.17582,4.07469 1.24664,7.95691 2.50663,11.78606c0.85297,2.59257 1.91637,5.14773 5.05696,5.71609c1.9299,0.34988 3.83306,0.46817 5.80635,-0.14877c3.50378,-1.09472 4.98808,-3.31797 4.28919,-6.95916c-0.49033,-2.55542 -0.94675,-5.11738 -1.52676,-7.65235c-0.36268,-1.58735 -0.78014,-3.16082 -1.18267,-4.73852c-0.23705,-0.93029 -0.79646,-2.49947 -0.64668,-3.44301c-0.23856,0.52492 -1.19961,1.27254 -1.77356,0.59872c-1.32428,-1.55482 1.93613,-3.59973 2.48571,-4.68275c0.78901,-1.55394 1.54903,-3.16943 1.98398,-4.84767c0.61676,-2.37327 0.93017,-4.82765 1.3685,-7.22604c-1.67547,0.29409 -3.10678,0.59624 -4.55288,0.78762c-1.47205,0.19479 -2.95511,0.32676 -4.43912,0.39973c-1.02632,0.05058 -2.06704,0.01438 -3.09083,-0.0881c-1.57178,-0.15964 -3.14893,-0.65124 -4.69974,-0.56519c-2.46613,0.13584 -4.91461,0.62144 -7.36814,0.9801c-0.63458,0.09326 -1.26635,0.23648 -1.88778,0.40053c-0.90628,0.23766 -2.02586,0.27275 -2.63772,0.8437c-0.69854,0.65336 -0.97376,2.25202 -1.28227,3.15212c-0.38877,1.13242 -0.38432,2.39852 -0.44803,3.5937c-0.21338,4.00397 0.72859,6.96714 3.01486,10.24766c0.42288,0.60825 0.91797,1.16733 1.31409,1.667c1.67372,-0.51906 3.32755,-1.0318 5.18432,-1.60881c-0.007,-0.02456 -0.06577,-0.27523 -0.09518,-0.52964zM116.70073,218.69724c-0.27927,0.17153 -0.54918,0.36492 -0.84954,0.59279c-2.02145,1.53684 -4.26041,4.46837 -4.97228,6.95919c-0.97689,3.42122 -1.34222,7.05759 -1.079,10.66081c0.19656,2.69618 0.78075,5.36609 0.9193,8.06221c0.21673,4.19305 1.74282,8.02591 3.00191,11.92308c0.60749,1.88344 1.9872,3.40236 3.99707,3.87396c3.822,0.8984 7.28741,0.33838 9.64934,-3.21523c0.4755,-0.71577 0.89874,-1.69573 0.82563,-2.50666c-0.21315,-2.36087 -0.69597,-4.69937 -1.06092,-7.04679c-0.34492,-2.22172 -0.66291,-4.44788 -1.03674,-6.66413c-0.03537,-0.20846 -0.35529,-0.44832 -0.59161,-0.52852c-0.94534,-0.32278 -1.93666,-0.5208 -2.85594,-0.902c-0.44604,-0.18482 -0.91994,-0.60823 -1.09496,-1.04146c-0.11668,-0.28915 0.20655,-0.83444 0.46227,-1.16362c0.94548,-1.21643 5.41404,1.56878 6.61397,1.92646c2.53254,0.75621 1.64271,-0.77463 0.99714,-2.41442c-0.83018,-2.10987 -1.20213,-4.76721 -1.14256,-7.02347c0.0711,-2.7195 -0.56531,-5.52659 0.55788,-8.18708c0.10882,-0.25979 0.14416,-0.61041 0.06393,-0.87215c-0.07601,-0.2478 -0.32558,-0.59082 -0.54015,-0.62436c-2.62786,-0.40362 -5.20129,-0.71911 -7.53516,-2.17861c-1.58926,-0.99447 -2.67075,-0.64396 -4.32959,0.36996zM125.52583,189.2149c0.11842,4.05062 1.56393,7.66275 3.43421,11.133c0.60215,1.11942 1.51072,1.33278 2.51899,0.5984c4.39793,-3.19843 5.53302,-7.97038 7.17821,-12.92659c0.52361,-1.57666 0.95447,-3.19883 1.66122,-4.70644c0.48825,-1.04102 1.31478,-2.25352 -0.37197,-2.47232c-4.00291,-0.51943 -7.98601,-0.18407 -11.96717,0.21026c-1.21223,0.11959 -2.06059,0.72337 -2.14016,2.05082c-0.12112,2.03722 -0.21023,4.07493 -0.31334,6.11286zM176.31722,180.22061c0.84405,0.73947 1.53396,1.47142 2.34307,2.02943c3.15458,2.17835 4.71246,5.44062 5.77164,8.91097c0.71708,2.35273 1.38993,4.50514 3.726,5.79159c1.90316,1.04741 4.08935,0.48403 4.37787,-1.52989c0.40102,-2.78884 0.27221,-5.62513 -0.42295,-8.35426c-0.43348,-1.69822 -0.44569,-3.50726 -1.02333,-5.21416c-0.46218,-1.36972 -1.10365,-3.49964 -2.41624,-4.33055c-1.86631,-1.18102 -5.32796,0.29307 -7.2689,0.62245c-1.79628,0.30704 -3.49559,0.79655 -5.08717,2.07441zM146.64088,217.72168c-2.89079,-0.89244 -5.73414,-1.69663 -8.52693,-2.65166c-3.66169,-1.25204 -7.19933,-2.81112 -10.38193,-5.05202c-1.43653,-1.01194 -2.77234,-2.16652 -4.1355,-3.27965c-0.31114,-0.25401 -0.54384,-0.6053 -0.81185,-0.91301c-0.31394,0.37812 -0.70855,0.71453 -0.92666,1.14311c-1.00523,1.97549 -0.96813,4.08717 -0.90214,6.25338c0.06347,2.07225 1.18882,3.50926 2.77735,4.1487c1.92478,0.77602 4.11176,1.12876 6.20123,1.20303c3.41137,0.11893 6.83753,-0.08442 10.25426,-0.25261c2.15959,-0.10488 4.31019,-0.39465 6.45216,-0.59926zM112.47394,219.61161c-0.27278,-0.23163 -0.60014,-0.43737 -0.83476,-0.72162c-1.46278,-1.77061 -2.98588,-3.49824 -4.32609,-5.35885c-0.96988,-1.34752 -1.81179,-2.82111 -2.48241,-4.34048c-0.76406,-1.73189 -1.65222,-3.34476 -3.0273,-4.63872c-0.93027,-0.87609 -2.15072,-0.64636 -2.62068,0.53639c-0.31622,0.79421 -0.58218,1.72763 -0.48087,2.5511c0.52703,4.33305 2.6158,8.01781 5.33279,11.27736c1.49515,1.79309 3.50541,3.15581 5.31827,4.74274c1.1011,-1.42697 2.08264,-2.70198 3.12105,-4.04792zM172.40004,229.41427c-0.11099,0.00179 -0.22197,0.00358 -0.33297,0.00438c-0.41618,1.10686 -0.97883,2.18609 -1.19934,3.3328c-0.1513,0.78755 0.14901,1.67181 0.2885,2.50567c0.38317,2.29911 0.75338,4.60044 1.19637,6.88758c0.41359,2.1386 0.9967,4.24646 1.34642,6.39409c0.22092,1.35561 0.1206,2.76141 0.23783,4.1367c0.02208,0.25268 0.36806,0.62014 0.62617,0.68698c1.69224,0.43473 3.50274,-0.53963 3.70094,-2.26305c0.18046,-1.58312 0.14687,-3.2918 -0.25987,-4.82043c-0.98906,-3.71151 -2.21317,-7.36222 -3.41626,-11.01227c-0.65,-1.97676 -1.45321,-3.90304 -2.18778,-5.85244zM128.61903,241.96783c0.38344,2.81118 0.81739,5.40551 1.07162,8.01874c0.23261,2.38956 0.24156,4.80173 0.43028,7.19799c0.02666,0.35062 0.52561,0.96264 0.76131,0.94183c0.75601,-0.06722 1.63522,-0.18543 2.20722,-0.62372c1.63394,-1.25555 2.34371,-3.07124 2.17999,-5.09686c-0.3523,-4.35088 -0.23235,-8.75239 -5.28421,-10.189c-0.40492,-0.11548 -0.83162,-0.15559 -1.3662,-0.24897zM130.38385,230.05179c3.35955,-0.55032 6.42782,-1.05393 9.77741,-1.60208c-0.0151,-0.93488 -0.04205,-1.92257 -0.04304,-2.91268c-0.00055,-0.77709 -0.29938,-1.0123 -1.10221,-0.87132c-1.34935,0.23682 -2.72067,0.35198 -4.08654,0.49505c-1.50764,0.15836 -3.01768,0.29176 -4.61742,0.44461c0.02317,1.43481 0.04642,2.87463 0.07181,4.44642zM131.00834,231.99696c-0.16019,0.1136 -0.27986,0.25855 -0.34087,0.44456c-0.21636,0.66058 0.09357,3.31692 0.74733,3.73042c0.76486,0.48071 2.83003,-0.39275 3.58912,-0.64104c1.71914,-0.56283 3.49651,-0.80156 5.24513,-1.27286c0.87232,-0.23512 0.92759,-0.09499 0.82036,-1.09939c-0.08496,-0.80173 -0.5576,-1.51919 -0.58273,-2.33189c0.00206,0.06698 -6.13274,0.62311 -6.58199,0.67337c-0.84257,0.09562 -2.22694,0.02196 -2.89636,0.49683zM141.75136,236.61809c-0.09542,-0.08747 -0.19054,-0.15594 -0.28526,-0.19942c-0.84235,-0.38645 -2.82106,0.51462 -3.74398,0.71255c-1.22888,0.26488 -2.43748,0.60944 -3.65243,0.9321c-0.87438,0.23115 -1.80355,0.16614 -1.44445,1.22248c0.40433,1.19363 2.57565,1.81565 3.67349,1.79692c2.01371,-0.03452 4.11126,0.16864 6.08981,-0.30837c1.19252,-0.28729 1.31098,-0.50723 0.86508,-1.61218c-0.34586,-0.85553 -0.81195,-1.91014 -1.50227,-2.54407zM141.70661,220.53172c-2.59444,-0.31615 -5.46729,0.02628 -8.08648,0.09758c-0.64979,0.01849 -1.64796,0.13963 -2.14814,0.62777c-0.51099,0.50032 -0.56517,1.3563 -0.81792,1.99347c2.1823,0.00076 4.2195,-0.06514 6.42319,-0.28775c0.95857,-0.09649 1.99368,0.02581 2.92181,-0.28322c0.4019,-0.13351 0.89072,-0.33443 1.18862,-0.65228c0.10914,-0.11578 0.81145,-1.46529 0.56299,-1.49129c-0.01501,-0.00076 -0.03004,-0.00252 -0.04407,-0.00429z" fill="#2a3d98" fill-rule="nonzero" stroke-width="1"/><path d="M109.37084,223.7062c-1.81286,-1.58693 -3.85561,-2.94848 -5.35076,-4.74157c-2.71699,-3.25955 -4.82835,-7.02564 -5.35538,-11.35869c-0.10131,-0.82347 0.17229,-1.76377 0.4885,-2.55798c0.46996,-1.18274 1.70109,-1.41843 2.63136,-0.54234c1.37507,1.29397 2.27413,2.90379 3.03819,4.63568c0.67062,1.51937 1.56967,3.03356 2.53956,4.38108c1.34022,1.8606 2.85251,3.62901 4.31529,5.39962c0.23462,0.28425 0.56191,0.49008 0.83469,0.7217c-1.0384,1.34594 -2.04034,2.63554 -3.14145,4.0625z" data-paper-data="{&quot;noHover&quot;:false,&quot;origItem&quot;:[&quot;Path&quot;,{&quot;applyMatrix&quot;:true,&quot;segments&quot;:[[[112.47394,219.61161],[-1.0384,1.34594],[-0.27278,-0.23163]],[[111.63918,218.89],[0.23462,0.28425],[-1.46278,-1.77061]],[[107.31309,213.53115],[1.34022,1.8606],[-0.96988,-1.34752]],[[104.83068,209.19067],[0.67062,1.51937],[-0.76406,-1.73189]],[[101.80339,204.55195],[1.37507,1.29397],[-0.93027,-0.87609]],[[99.1827,205.08833],[0.46996,-1.18274],[-0.31622,0.79421]],[[98.70183,207.63943],[-0.10131,-0.82347],[0.52703,4.33305]],[[104.03462,218.91679],[-2.71699,-3.25955],[1.49515,1.79309]],[[109.3529,223.65954],[-1.81286,-1.58693],[1.1011,-1.42697]]],&quot;closed&quot;:true}]}" fill="#b4831f" fill-rule="nonzero" stroke-width="0.5"/><path d="M129.97303,242.16832c5.05186,1.43662 4.98485,5.91561 5.33715,10.26649c0.16373,2.02562 -0.57926,3.86176 -2.2132,5.1173c-0.572,0.43829 -1.46531,0.55664 -2.22132,0.62385c-0.23569,0.02081 -0.74051,-0.59235 -0.76717,-0.94297c-0.18872,-2.39627 -0.2352,-4.8582 -0.46781,-7.24776c-0.25423,-2.61324 -0.65728,-5.25244 -1.04072,-8.06361c0.53458,0.09338 0.96816,0.13122 1.37308,0.2467z" data-paper-data="{&quot;noHover&quot;:false,&quot;origItem&quot;:[&quot;Path&quot;,{&quot;applyMatrix&quot;:true,&quot;segments&quot;:[[[128.61903,241.96783],[0.53458,0.09338],[0.38344,2.81118]],[[129.69065,249.98658],[-0.25423,-2.61324],[0.23261,2.38956]],[[130.12093,257.18457],[-0.18872,-2.39627],[0.02666,0.35062]],[[130.88224,258.1264],[-0.23569,0.02081],[0.75601,-0.06722]],[[133.08945,257.50268],[-0.572,0.43829],[1.63394,-1.25555]],[[135.26944,252.40581],[0.16373,2.02562],[-0.3523,-4.35088]],[[129.98523,242.21681],[5.05186,1.43662],[-0.40492,-0.11548]]],&quot;closed&quot;:true}]}" fill="#b4831f" fill-rule="nonzero" stroke-width="0.5"/><path d="M121.03271,218.27734c2.33387,1.45951 4.92548,1.77936 7.55334,2.18298c0.21457,0.03354 0.4658,0.37734 0.54181,0.62514c0.08024,0.26174 0.04564,0.61274 -0.06318,0.87253c-1.12319,2.66048 -0.476,5.47509 -0.5471,8.19459c-0.05958,2.25626 0.32733,4.93919 1.15751,7.04906c0.64556,1.63979 1.4367,3.18084 -1.09584,2.42464c-1.19993,-0.35767 -5.65619,-3.10895 -6.60167,-1.89252c-0.25572,0.32917 -0.49447,0.82401 -0.37778,1.11316c0.17502,0.43323 0.65135,0.88293 1.0974,1.06775c0.91928,0.38121 1.90988,0.58261 2.85522,0.90539c0.23633,0.08019 0.55546,0.32286 0.59083,0.53131c0.37383,2.21625 0.67605,4.46598 1.02097,6.6877c0.36495,2.34741 0.83901,4.69176 1.05216,7.05263c0.0731,0.81093 -0.35453,1.79293 -0.83003,2.5087c-2.36193,3.5536 -5.8515,4.11701 -9.6735,3.21861c-2.00988,-0.47161 -3.40119,-1.99321 -4.00868,-3.87664c-1.25909,-3.89718 -2.81118,-7.75151 -3.02792,-11.94456c-0.13855,-2.69611 -0.7283,-5.40361 -0.92486,-8.09979c-0.26322,-3.60322 0.12218,-7.26867 1.09906,-10.68989c0.71187,-2.49082 2.96918,-5.43022 4.99063,-6.96706c0.30036,-0.22788 0.5725,-0.42167 0.85177,-0.5932c1.65884,-1.01392 2.75062,-1.365 4.33988,-0.37053z" data-paper-data="{&quot;noHover&quot;:false,&quot;origItem&quot;:[&quot;Path&quot;,{&quot;applyMatrix&quot;:true,&quot;segments&quot;:[[[116.70073,218.69724],[1.65884,-1.01392],[-0.27927,0.17153]],[[115.85119,219.29004],[0.30036,-0.22788],[-2.02145,1.53684]],[[110.87891,226.24923],[0.71187,-2.49082],[-0.97689,3.42122]],[[109.79991,236.91005],[-0.26322,-3.60322],[0.19656,2.69618]],[[110.71921,244.97225],[-0.13855,-2.69611],[0.21673,4.19305]],[[113.72112,256.89534],[-1.25909,-3.89718],[0.60749,1.88344]],[[117.7182,260.7693],[-2.00988,-0.47161],[3.822,0.8984]],[[127.36754,257.55407],[-2.36193,3.5536],[0.4755,-0.71577]],[[128.19317,255.04742],[0.0731,0.81093],[-0.21315,-2.36087]],[[127.13225,248.00063],[0.36495,2.34741],[-0.34492,-2.22172]],[[126.09551,241.3365],[0.37383,2.21625],[-0.03537,-0.20846]],[[125.5039,240.80798],[0.23633,0.08019],[-0.94534,-0.32278]],[[122.64796,239.90598],[0.91928,0.38121],[-0.44604,-0.18482]],[[121.553,238.86452],[0.17502,0.43323],[-0.11668,-0.28915]],[[122.01527,237.70091],[-0.25572,0.32917],[0.94548,-1.21643]],[[128.62924,239.62736],[-1.19993,-0.35767],[2.53254,0.75621]],[[129.62639,237.21295],[0.64556,1.63979],[-0.83018,-2.10987]],[[128.48383,230.18948],[-0.05958,2.25626],[0.0711,-2.7195]],[[129.04171,222.00241],[-1.12319,2.66048],[0.10882,-0.25979]],[[129.10563,221.13026],[0.08024,0.26174],[-0.07601,-0.2478]],[[128.56548,220.5059],[0.21457,0.03354],[-2.62786,-0.40362]],[[121.03032,218.32729],[2.33387,1.45951],[-1.58926,-0.99447]]],&quot;closed&quot;:true}]}" fill="#b4831f" fill-rule="nonzero" stroke-width="0.5"/><path d="M181.38815,178.09891c1.94093,-0.32938 5.43835,-1.80221 7.30467,-0.6212c1.31259,0.83091 1.97307,2.975 2.43525,4.34472c0.57764,1.7069 0.6013,3.54646 1.03478,5.24468c0.69516,2.72913 0.809,5.60245 0.40798,8.39129c-0.28852,2.01392 -2.49222,2.58844 -4.39538,1.54103c-2.33608,-1.28645 -3.0278,-3.43572 -3.74489,-5.78845c-1.05917,-3.47035 -2.65369,-6.81507 -5.80828,-8.99342c-0.80912,-0.55801 -1.49896,-1.29004 -2.34301,-2.02951c1.59157,-1.27787 3.3126,-1.78211 5.10888,-2.08915z" data-paper-data="{&quot;noHover&quot;:false,&quot;origItem&quot;:[&quot;Path&quot;,{&quot;applyMatrix&quot;:true,&quot;segments&quot;:[[[176.31722,180.22061],[1.59157,-1.27787],[0.84405,0.73947]],[[178.6603,182.25004],[-0.80912,-0.55801],[3.15458,2.17835]],[[184.43194,191.16101],[-1.05917,-3.47035],[0.71708,2.35273]],[[188.15794,196.9526],[-2.33608,-1.28645],[1.90316,1.04741]],[[192.53581,195.42271],[-0.28852,2.01392],[0.40102,-2.78884]],[[192.11285,187.06845],[0.69516,2.72913],[-0.43348,-1.69822]],[[191.08953,181.85429],[0.57764,1.7069],[-0.46218,-1.36972]],[[188.67329,177.52374],[1.31259,0.83091],[-1.86631,-1.18102]],[[181.40439,178.1462],[1.94093,-0.32938],[-1.79628,0.30704]]],&quot;closed&quot;:true}]}" fill="#b4831f" fill-rule="nonzero" stroke-width="0.5"/><path d="M125.80492,183.06562c0.07958,-1.32746 0.93876,-1.93898 2.15099,-2.05857c3.98115,-0.39433 8.01527,-0.72722 12.01818,-0.20778c1.68675,0.21879 0.86656,1.43627 0.3783,2.47729c-0.70675,1.50761 -1.12765,3.14255 -1.65126,4.71921c-1.64519,4.95621 -2.83287,9.80135 -7.2308,12.99978c-1.00827,0.73438 -1.92891,0.51726 -2.53106,-0.60216c-1.87028,-3.47025 -3.34376,-7.13899 -3.46218,-11.1896c0.10311,-2.03793 0.20672,-4.10094 0.32784,-6.13816z" data-paper-data="{&quot;noHover&quot;:false,&quot;origItem&quot;:[&quot;Path&quot;,{&quot;applyMatrix&quot;:true,&quot;segments&quot;:[[[125.52583,189.2149],[0.10311,-2.03793],[0.11842,4.05062]],[[128.96004,200.3479],[-1.87028,-3.47025],[0.60215,1.11942]],[[131.47903,200.94631],[-1.00827,0.73438],[4.39793,-3.19843]],[[138.65725,188.01972],[-1.64519,4.95621],[0.52361,-1.57666]],[[140.31847,183.31328],[-0.70675,1.50761],[0.48825,-1.04102]],[[139.9465,180.84096],[1.68675,0.21879],[-4.00291,-0.51943]],[[127.97933,181.05122],[3.98115,-0.39433],[-1.21223,0.11959]],[[125.83917,183.10205],[0.07958,-1.32746],[-0.12112,2.03722]]],&quot;closed&quot;:true}]}" fill="#b4831f" fill-rule="nonzero" stroke-width="0.5"/><path d="M159.56228,177.74891c2.94562,-0.04757 5.64039,0.46875 8.51283,1.15446c1.92768,0.45993 3.68107,1.8051 5.4403,2.85783c1.03514,0.61937 1.92271,1.49569 2.91797,2.18471c2.28788,1.58426 4.24489,4.4576 5.38683,6.98349c1.65845,3.6687 2.20788,6.96206 1.22248,10.97049c-0.72162,2.94004 -1.97617,5.59523 -4.31718,7.53328c-3.40492,2.81935 -7.29037,4.88039 -11.62535,5.78351c-3.95321,0.82394 -8.01517,0.72229 -12.0149,0.27581c-1.10413,-0.12319 -2.19449,-0.57902 -3.25007,-0.97802c-2.02164,-0.76646 -4.13276,-1.42662 -5.99807,-2.48363c-1.21429,-0.68948 -2.26313,-1.89551 -3.06142,-3.08378c-1.9675,-2.92561 -3.54998,-6.11672 -4.2622,-9.59267c-0.25517,-1.24704 -0.12907,-2.72304 0.2774,-3.93576c1.09073,-3.24604 2.37842,-6.4526 3.7046,-9.61043c0.41507,-0.98983 1.07151,-1.98873 1.86724,-2.69367c1.80149,-1.5943 3.65203,-3.24925 6.07993,-3.83253c2.65506,-0.63695 5.42403,-1.3252 8.16764,-1.49552c0.31673,-0.01912 0.63704,-0.03249 0.952,-0.03758z" data-paper-data="{&quot;noHover&quot;:false,&quot;origItem&quot;:[&quot;Path&quot;,{&quot;applyMatrix&quot;:true,&quot;segments&quot;:[[[158.61641,177.83611],[0.31673,-0.01912],[-2.74361,0.17032]],[[150.46839,179.32487],[2.65506,-0.63695],[-2.4279,0.58328]],[[144.4013,183.14633],[1.80149,-1.5943],[-0.79572,0.70494]],[[142.53846,185.83376],[0.41507,-0.98983],[-1.32618,3.15783]],[[138.84079,195.42172],[1.09073,-3.24604],[-0.40647,1.21272]],[[138.56316,199.34871],[-0.25517,-1.24704],[0.71222,3.47595]],[[142.81725,208.91927],[-1.9675,-2.92561],[0.79829,1.18827]],[[145.87232,211.99534],[-1.21429,-0.68948],[1.86531,1.05702]],[[151.85806,214.47001],[-2.02164,-0.76646],[1.05558,0.39901]],[[155.10022,215.44479],[-1.10413,-0.12319],[3.99973,0.44648]],[[167.08433,215.16925],[-3.95321,0.82394],[4.33498,-0.90311]],[[178.68476,209.40418],[-3.40492,2.81935],[2.34101,-1.93805]],[[182.99397,201.88862],[-0.72162,2.94004],[0.9854,-4.00843]],[[181.77207,190.94293],[1.65845,3.6687],[-1.14193,-2.52589]],[[176.3949,183.97784],[2.28788,1.58426],[-0.99526,-0.68902]],[[173.48335,181.79957],[1.03514,0.61937],[-1.75923,-1.05273]],[[168.05663,178.94982],[1.92768,0.45993],[-2.87245,-0.68571]],[[159.56594,177.79877],[2.94562,-0.04757],[-0.31496,0.00509]]],&quot;closed&quot;:true}]}" fill="#b4831f" fill-rule="nonzero" stroke-width="0.5"/><path d="M174.58775,235.21671c1.20309,3.65005 2.45606,7.39164 3.44512,11.10316c0.40674,1.52863 0.42929,3.24317 0.24883,4.82629c-0.1982,1.72342 -2.02659,2.70104 -3.71883,2.26631c-0.25811,-0.06684 -0.60688,-0.43439 -0.62896,-0.68706c-0.11722,-1.37529 -0.02025,-2.7814 -0.24117,-4.13701c-0.34972,-2.14763 -0.97426,-4.29012 -1.38785,-6.42872c-0.44299,-2.28715 -0.78981,-4.64713 -1.17298,-6.94625c-0.13948,-0.83386 -0.43521,-1.72038 -0.2839,-2.50792c0.22051,-1.14671 0.79258,-2.22892 1.20877,-3.33578c0.111,-0.00079 0.2233,-0.00284 0.33428,-0.00463c0.73457,1.94939 1.54669,3.87486 2.19669,5.85162z" data-paper-data="{&quot;noHover&quot;:false,&quot;origItem&quot;:[&quot;Path&quot;,{&quot;applyMatrix&quot;:true,&quot;segments&quot;:[[[172.40004,229.41427],[0.73457,1.94939],[-0.11099,0.00179]],[[172.06707,229.41865],[0.111,-0.00079],[-0.41618,1.10686]],[[170.86772,232.75145],[0.22051,-1.14671],[-0.1513,0.78755]],[[171.15622,235.25712],[-0.13948,-0.83386],[0.38317,2.29911]],[[172.35259,242.1447],[-0.44299,-2.28715],[0.41359,2.1386]],[[173.69901,248.53879],[-0.34972,-2.14763],[0.22092,1.35561]],[[173.93683,252.67549],[-0.11722,-1.37529],[0.02208,0.25268]],[[174.56301,253.36247],[-0.25811,-0.06684],[1.69224,0.43473]],[[178.26395,251.09941],[-0.1982,1.72342],[0.18046,-1.58312]],[[178.00408,246.27898],[0.40674,1.52863],[-0.98906,-3.71151]],[[174.58782,235.26671],[1.20309,3.65005],[-0.65,-1.97676]]],&quot;closed&quot;:true}]}" fill="#b4831f" fill-rule="nonzero" stroke-width="0.5"/><path d="M151.57553,237.93553c-1.85677,0.57701 -3.60997,1.09862 -5.28369,1.61768c-0.39612,-0.49967 -0.89183,-1.06635 -1.31471,-1.6746c-2.28627,-3.28051 -3.21976,-6.27178 -3.00638,-10.27575c0.06371,-1.19518 0.06427,-2.46757 0.45303,-3.6c0.30851,-0.9001 0.58914,-2.50375 1.28768,-3.15711c0.61186,-0.57095 1.73655,-0.6096 2.64283,-0.84727c0.62143,-0.16406 1.25715,-0.30944 1.89172,-0.4027c2.45353,-0.35866 4.91999,-0.84922 7.38612,-0.98506c1.55081,-0.08605 3.14034,0.40608 4.71212,0.56572c1.02379,0.10248 2.07214,0.1406 3.09846,0.09002c1.48402,-0.07297 2.9757,-0.20109 4.44775,-0.39589c1.4461,-0.19137 2.88341,-0.48954 4.55888,-0.78363c-0.43833,2.39839 -0.74515,4.85888 -1.36191,7.23215c-0.43496,1.67824 -1.19006,3.30016 -1.97907,4.8541c-0.54958,1.08302 -3.80435,3.14 -2.48007,4.69482c0.57395,0.67382 1.53496,-0.07396 1.77351,-0.59888c-0.14978,0.94354 0.41196,2.52743 0.64901,3.45772c0.40253,1.57771 0.81707,3.16841 1.17975,4.75576c0.58001,2.53497 1.0275,5.11241 1.51783,7.66783c0.69888,3.64119 -0.80011,5.87628 -4.30389,6.971c-1.9733,0.61694 -3.8888,0.50325 -5.81871,0.15336c-3.14059,-0.56836 -4.21742,-3.12234 -5.07039,-5.7149c-1.25999,-3.82915 -2.37126,-7.73545 -2.54708,-11.81015c-0.03701,-0.86752 -0.40515,-1.75171 -0.55018,-2.61948c-0.15264,-0.90565 -0.21669,-4.30635 -1.5381,-4.56905c-1.82908,-0.36151 -0.5319,4.03864 -0.4398,4.84926c0.02942,0.25441 0.0883,0.50049 0.0953,0.52505z" data-paper-data="{&quot;noHover&quot;:false,&quot;origItem&quot;:[&quot;Path&quot;,{&quot;applyMatrix&quot;:true,&quot;segments&quot;:[[[151.43036,237.40691],[0.02942,0.25441],[-0.0921,-0.81062]],[[151.88461,232.52594],[-1.82908,-0.36151],[1.32141,0.2627]],[[153.50731,237.13934],[-0.15264,-0.90565],[0.14503,0.86777]],[[154.05111,239.72389],[-0.03701,-0.86752],[0.17582,4.07469]],[[156.55775,251.50996],[-1.25999,-3.82915],[0.85297,2.59257]],[[161.61471,257.22605],[-3.14059,-0.56836],[1.9299,0.34988]],[[167.42106,257.07727],[-1.9733,0.61694],[3.50378,-1.09472]],[[171.71025,250.11811],[0.69888,3.64119],[-0.49033,-2.55542]],[[170.18349,242.46576],[0.58001,2.53497],[-0.36268,-1.58735]],[[169.00082,237.72724],[0.40253,1.57771],[-0.23705,-0.93029]],[[168.35415,234.28423],[-0.14978,0.94354],[-0.23856,0.52492]],[[166.58058,234.88295],[0.57395,0.67382],[-1.32428,-1.55482]],[[169.06629,230.2002],[-0.54958,1.08302],[0.78901,-1.55394]],[[171.05028,225.35254],[-0.43496,1.67824],[0.61676,-2.37327]],[[172.41878,218.1265],[-0.43833,2.39839],[-1.67547,0.29409]],[[167.8659,218.91411],[1.4461,-0.19137],[-1.47205,0.19479]],[[163.42678,219.31384],[1.48402,-0.07297],[-1.02632,0.05058]],[[160.33595,219.22574],[1.02379,0.10248],[-1.57178,-0.15964]],[[155.63621,218.66055],[1.55081,-0.08605],[-2.46613,0.13584]],[[148.26808,219.64065],[2.45353,-0.35866],[-0.63458,0.09326]],[[146.3803,220.04119],[0.62143,-0.16406],[-0.90628,0.23766]],[[143.74258,220.88489],[0.61186,-0.57095],[-0.69854,0.65336]],[[142.46031,224.037],[0.30851,-0.9001],[-0.38877,1.13242]],[[142.01228,227.63071],[0.06371,-1.19518],[-0.21338,4.00397]],[[145.02714,237.87836],[-2.28627,-3.28051],[0.42288,0.60825]],[[146.34123,239.54536],[-0.39612,-0.49967],[1.67372,-0.51906]],[[151.52554,237.93655],[-1.85677,0.57701],[-0.007,-0.02456]]],&quot;closed&quot;:true}]}" fill="#b4831f" fill-rule="nonzero" stroke-width="0.5"/></g><g fill="#2a3d98" fill-rule="evenodd" stroke-width="1"><path d="M163.00658,196.39064c-1.42154,2.39327 -3.66809,3.73972 -6.41844,3.92615c-2.44565,0.16551 -4.35923,-1.15576 -5.79399,-3.11085c-0.54714,-0.74726 -2.24344,-2.67212 -1.73028,-3.53352c1.32527,-2.22369 3.52148,2.41645 4.03041,2.96531c1.47589,1.59138 3.55918,1.53073 5.27114,0.33793c1.42617,-0.99216 2.47917,-2.23932 2.78923,-4.15758c-0.45339,-0.02068 -0.88747,-0.02167 -1.3192,-0.06371c-0.82144,-0.08275 -1.41773,-0.59119 -1.30328,-1.36913c0.06493,-0.43811 0.69574,-1.01237 1.16595,-1.12697c1.30711,-0.31315 2.66056,-0.48202 4.00442,-0.56373c0.37468,-0.02305 1.03047,0.39241 1.11174,0.71814c0.12186,0.4861 0.02726,1.25472 -0.29764,1.57301c-0.64489,0.6315 -0.51823,1.10451 -0.11995,1.73816c1.98927,3.15929 6.66643,2.88373 8.46058,-0.58969c0.53439,-1.03276 0.72741,-2.27204 0.92154,-3.44233c0.1368,-0.81832 0.24422,-1.35112 1.27402,-1.24773c1.08089,0.10856 1.59004,0.85644 1.52522,1.67359c-0.37857,4.73673 -3.75311,9.43683 -9.6114,7.91823c-1.33977,-0.34641 -2.58549,-1.06239 -3.96008,-1.64527z"/><path d="M166.76453,184.77545c0.61481,-0.574 1.85116,-0.19092 2.25153,0.63373c0.54108,1.11541 -0.14907,2.65975 -1.49821,2.41451c-0.98202,-0.17917 -1.20691,-1.53271 -1.08716,-2.35475c0.044,-0.30975 0.16534,-0.53774 0.33385,-0.69348z"/><path d="M154.73863,186.24182c0.12278,-0.75808 0.3956,-1.51459 1.39601,-1.55874c0.75856,-0.03325 1.82184,1.27575 1.62557,2.19004c-0.09301,0.43356 -0.76148,0.96742 -1.2343,1.04407c-0.86587,0.139 -1.79038,-0.8142 -1.78728,-1.67536z"/></g></g></g></svg>